<svg xmlns="http://www.w3.org/2000/svg" width="80" height="80" viewBox="0 0 80 80">
    <g fill="#000" fill-rule="evenodd" opacity=".8">
        <path d="M15.435 68.914c.066.154.129-.012 0 0zm.023-1.73c-.07.07.045-.044 0 0zm.532 2.365c.103-.442-.317-.022 0 0zm.097.017c.066.154.129-.011 0 0zm.284 0c-.155.064.01.128 0 0zm.153-.05h.107c.013-.263-.13-.181-.107 0zm-.002.05c.065.154.128-.011 0 0zm.675-2.164c.045-.045-.07.07 0 0zm.285 2.158v-.212c-.134.026-.107.21 0 .212zm-.09.006c.064.154.127-.011 0 0zm.505-2.363c.597.06-.882-.09 0 0zm.17-.018c.044-.045-.07.069 0 0zm.217 2.826c.045-.045-.07.07 0 0zm0-2.609c.044-.045-.07.07 0 0zm1.047 1.093c-.44-.102-.021.318 0 0zm.234.201c.065.154.129-.011 0 0zm.24.88c.045-.045-.07.07 0 0zm.218-.652c.044-.045-.07.069 0 0zm.83-.324c-.021-.319-.441.101 0 0zm-.2-.339c.064.155.128-.01 0 0zm.217.435c.065.154.128-.011 0 0zm.24-1.294c.045-.045-.07.07 0 0zm.265 1.323c-.881-.09.597.061 0 0zm.17-.019c-.07.07.044-.044 0 0zm.217-.217c-.07.07.045-.045 0 0zm.303.424c-.376.123.377.123 0 0zm.215-2.614c-.023-.082-.003-.21-.106-.212.023.082.004.21.106.212zm.437 2.18c-.376.122.377.122 0 0zm.2.211c-.011-.118.154-.165 0-.212-.107.001-.134.186 0 .212zm.452.006c-.376.123.377.123 0 0zm-.543-1.424c.084.212.894.114.58-.078.058.197-.533-.19-.58.078zm.976 1.853c-.024-.082-.003-.21-.106-.212.023.082.003.21.106.212zm-.083-.419c.044-.044-.07.07 0 0zm.217-.217c.045-.045-.07.07 0 0zm.435 0c-.07.07.045-.045 0 0zm.085 1.946c-.376.123.377.123 0 0zm.35-4.772c-.07.07.044-.045 0 0zm2.351 2.72c-.02-.319-.44.1 0 0zm-.092-.992c-.376.123.377.123 0 0zm.326.98c.065.006.126.016.106.106.104-.003.083-.13.106-.212-.123-.017-.188.023-.212.106zm-.217.163c.232-.081.542.4.652 0-.151.022-.232-.03-.26-.136-.08-.008-.155-.02-.13-.137-.107.026-.131.137-.262.137v.136zm.87-2.886c.248.006.37-.082.434-.213-.25-.005-.372.082-.435.213zm.458 1.754c.044-.045-.07.07 0 0zm.651-.217c.045-.045-.069.069 0 0zm.435 1.304c.045-.045-.069.07 0 0zm.3-.233c-.023-.082-.002-.21-.105-.213.023.083.003.21.106.213zm-.323-.408c.28.325.82-.123 0 0zm.459.64c-.07.07.043-.044 0 0zm.41 2.142c.01-.266-.16-.197 0-.39-.289-.153-.289.542 0 .39zm-.193-.837c-.07.07.044-.044 0 0zm-.024-.038c.272.162.27-.438.098-.406-.17.207.073.199-.098.406zm.024-1.266c.044-.045-.07.07 0 0zm.3-.228c-.017-.171.018-.411-.106-.435.017.17-.018.411.106.435zm-13.127.663c-.069.07.045-.045 0 0zm.195-.543c-.1.277-.34-.141-.652 0 .046-.225.577-.08.652 0zm.417.384h-.122c.011.128-.18.065 0 0-.001-.059.1-.121.122 0 .514-.101.027.318 0 0zm.109-.722c.31.158-.015.57-.309.391.011-.246.34-.09.309-.39zm.15.229c-.07.069.043-.045 0 0zm.434-.218c-.07.07.044-.044 0 0zm5.217 0c.045-.044-.07.07 0 0zm6.934-.194c-.117-.23-.23-.463-.352-.686-.26.165.148.28-.117.343-2.474.15-5.217.291-8.085.343-.182.004-.367.22-.586.23-.2.007-.435-.223-.704-.23-1.008-.025-2.692.026-3.28.343.035-.138-.34-.394-.352-.114.14-.011.071.167 0 0-.636-.261-2.259-.911-2.93 0 .598-.129.933-.214 1.406-.229-.253.542.631.273.938.458-.115.117-.232.231-.352.343-.008-.019.011-.227 0-.229-.657-.089-1.168-.05-2.108 0 .15.359.242.06.584.23-.01-.139.172-.071 0 0 .038.303-.655-.108-.468.343.38.064.59-.035.703-.23.155.04.184.202.351.23.315-.295-.313-.164 0-.458.325-.05.11.426.352.458-.04-.23.024-.359.235-.344.01.182-.057.437.117.458.27-.316 1-.169 1.172.229.528.001 1.368-.46.938-.687.244-.049.31.078.468.115.1-.093.07-.314.234-.344.03.125.234.078.235.23.094.021.116.114.234.114-.07-.298.047-.412.352-.344.064.167-.137.592.116.573.067-.238.184-.243.353-.115.063-.253-.224-.163-.235-.343.135-.096.314-.151.586-.115.414-.052 1.286.268 1.758-.229.38.26.979.392 1.406.344-.114-.004-.092-.14-.117-.229-.142.011-.073-.167 0 0 .54.234 1.523-.123 1.874.114.272-.43.706-.118.704-.457.621.03.778.371 1.289 0-.034.184.11.197.117.343h.469v-.229c-.066 0-.134-.093 0-.114v.114c.488.177.904-.167 1.171.343-.102-.367.181-.358.352-.457.452-.263.726-.17 1.172-.115zm.2.088c-.02-.319-.44.101 0 0zm-.418-.996c.25.005.371-.082.435-.213-.25-.005-.371.082-.435.213zm.24-.854c-.069.07.045-.045 0 0zm-.022 1.51v.213h.212v-.212h-.212zm.24-1.728c.044-.044-.07.07 0 0zm-.023 2.18c.021.318.44-.102 0 0zm.24-1.31c.045-.045-.069.07 0 0zm0-.652c.045-.045-.069.07 0 0zm.086 3.25c-.376.123.377.123 0 0zm.132-2.598c.044-.045-.07.07 0 0zm.083-.233c-.023-.082-.003-.21-.106-.213.024.083.003.21.106.213zm-.083.668c.044-.045-.07.069 0 0zm.652 1.304c.044-.045-.07.07 0 0zm.652 1.522c.045-.045-.07.07 0 0zm-.675-2.324c1.117.05 2.42-.127 3.358.14.09-.032.135-.118.116-.28-1.252-.022-2.673-.415-3.474.14zm3.696-.052c.883.285 2.51.222 3.353 0 .094-.025.14-.1.12-.236-1.34-.037-2.172.062-3.473.236zm3.936 1.94c.044-.044-.07.07 0 0zm2.391.653c.045-.045-.07.07 0 0zM45 66.515c.247.028.409-.025.435-.203-.248-.029-.41.024-.435.203zm.728.876c-1.276.061-2.642.306-3.663.372-.938.06-2.377-.33-2.717.372.754-.313 1.077.296 1.536-.124.346-.033.363.28.709.248 1.221-.372 2.787-.382 4.371-.372.093-.027.138-.104.119-.248-.186-.012-.41.017-.355-.248zm.18 1.744c-.026.076-.102.114-.244.099-.073.313.23.303 0 .49.436.192.536-.139.858-.294-.29-.03-.228-.341-.614-.295zm.614-1.526c-.01.285.545.266.652.077-.228-.188-.483.069-.652-.077zm1.006 1.956c-.666.225-.182.314-.978.125.204.506-.762.455-.367.745.204-.183.461.137.611-.373-.012.384.37.37.734.373.027-.455.167-.477 0-.87zm-.792-3.043c.026.314-.118.457-.432.432v-.432h.432zm.4-1.74c-.196.409-.417.793-.904.91-.015.28-.018.548.113.682-.349.08-.218.08-.566 0-.025.088-.003.224-.113.227-.1.366.373.156.34.455-.088.026-.224.003-.227.114.492-.157.631.034 1.245 0 .14-.368-.366-.087-.226-.455.292-.303.119.262.566.114.129-.472-.239-.443-.227-.796-.325-.159-.575.31-.68 0 .025-.128.127-.177.227-.227.346-.082.413.116.68.113-.242-.423.133-1.026-.227-1.136zm3.516 2.77c-.547.524-1.496.007-2.391.274.353-.558 1.76-.495 2.391-.273zM54.565 58.133c.091.308.091-.31 0 0M59.573 58.703c-.033-.032.051.052 0 0M58.269 59.138c-.033-.032.05.052 0 0M60.272 59.179c-.048-.113-.094.008 0 0M60.435 59.13c.048.114.095-.007 0 0M60.877 59.356c-.032-.033.052.05 0 0M51.747 59.356c-.033-.033.051.05 0 0M60.217 59.437c.091.31.091-.309 0 0M61.095 59.573c-.033-.033.05.05 0 0M51.466 60.217c-.018-.183.08-.52-.156-.415-.022.237.019.39.156.415M60.66 60.008c-.033-.033.051.05 0 0M70.228 58.706c-.044-.044.07.07 0 0M58.924 58.706c-.045-.044.07.07 0 0M68.271 58.924c-.044-.045.07.07 0 0M71.75 59.358c-.045-.044.07.07 0 0M61.304 59.891c.123.377.123-.376 0 0M73.043 67.513c.305.322.275-.393 0 0M61.967 60.01c-.044-.044.07.07 0 0M58.908 60c-.083.048-.21.007-.212.213.082-.048.209-.006.212-.213M63.924 60.228c-.045-.045.07.07 0 0M71.315 60.228c-.045-.045.07.07 0 0M58.174 61.522c-.004-.36.245-.966-.083-1.087.105.507-.215 1.01.083 1.087M61.315 60.445c-.045-.044.07.07 0 0M62.391 61.304c.163-.024.402.052.435-.145-.085-.031-.126-.121-.109-.29H62.5a.839.839 0 0 1-.109.435M73.102 61.318c-.187.254.116.83.3.575-.224-.36-.048-.284.2-.115.164-.186.121-.722-.2-.69v.23c.056 0 .114.093 0 .115v-.115h-.3M66.098 61.532c-.045-.044.069.07 0 0M62.68 62.12c.037-.237.327-.227.363-.463-.381.057-.426-.208-.845-.115.034.263-.029.434-.241.462.12.29.105.387 0 .808.206-.004.312.086.361.231.55-.312-.2-.948.243-1.155-.013-.14.175-.07 0 0-.02.134.026.206.12.231M62.174 62.283c.124-.377.124.376 0 0M59.348 62.031c.155-.065-.01-.129 0 0M60.01 61.967c.07.07-.043-.045 0 0"/>
        <path d="M59.236 61.957c-.08.092-.112.234-.104.414.314.105.185-.23.209-.414h-.105M62.031 62.023c-.065-.155-.129.01 0 0M61.315 62.185c.07.07-.044-.045 0 0M64.358 62.402c-.044-.044.07.07 0 0M66.522 62.5c.123.376.123-.377 0 0M69.576 62.837c-.045-.045.07.07 0 0M70.446 62.837c-.045-.045.069.07 0 0M70.88 62.837c-.044-.045.07.07 0 0M61.957 63.152c.123.377.123-.376 0 0M62.24 63.043c-.154.066.011.129 0 0M61.967 63.489c-.044-.045.07.07 0 0M61.75 64.141c-.045-.044.07.07 0 0M69.141 64.793c.07.07-.044-.044 0 0M69.348 66.413c.122.377.122-.377 0 0M66.098 66.75c-.045-.045.069.07 0 0M57.62 66.967c-.045-.045.07.07 0 0M65.445 67.185c-.044-.045.07.07 0 0M65.228 67.62c-.045-.045.07.07 0 0"/>
        <path d="M64.801 67.866c.637-.26.34.46.585.612-.02-.266.414-.055.585-.123.15-.288-.016-.227.116-.612-.574-.234-.312.407-.7.368-.011-.335.194-.247 0-.49-.221.054-.705-.168-.586.245M64.498 68.26c.034-.196.234-.233.285-.414-.294-.122-.64.358-.285.415M58.706 68.054c.07.07-.044-.044 0 0"/>
        <path d="M63.627 68.05c-.052.25.082.317.121.48-.533.153-.77-.303-.484-.601-.54-.304-.866.13-1.09.48.387.258.915.375 1.332.601-.01-.17-.02-.34.12-.36.018.223.08.402.243.48.243-.13 1.085-.355.484-.6.02.14-.027.213-.12.24.047.233-.552.175-.364-.12.155.006.168.154.363.12-.196-.322-.278-.457 0-.72-.195-.035-.208.113-.363.12 0 .066-.098.136-.12 0h.12c-.004-.117-.148-.094-.242-.12"/>
        <path d="M62.73 68.32c.102.348-.318.017 0 0-.011-.102.154-.052 0 0M63.908 67.826c-.082.048-.209.006-.212.212.082-.046.209-.006.212-.212M57.184 68.257c.244.005.364-.083.425-.214-.223.01-.491-.013-.425.214M57.62 68.054c.069.07-.045-.044 0 0M58.233 68.252c.163-.26-.438-.259-.406-.094.137.03.194.133.406.094M65.01 68.054c.07.07-.043-.044 0 0M60.651 68.13c-.42.016-.8.002-1.086-.087.049.26 1.124.286 1.086.086M59.565 69.129c-.125-.306.037-.86-.435-.868.241.206-.092.906.435.868M60.87 68.478h.433c.019-.186-.144-.243-.433-.207v.207"/>
        <path d="M61.315 68.473c.243.006.363-.082.424-.212-.223.01-.492-.015-.424.212M61.957 68.335c.154-.065-.01-.128 0 0M64.574 68.26c-.085.927.487.102 0 0M65.213 68.351c-.002-.107-.187-.133-.213 0 .022.13.118.066.213 0M62.023 68.26c-.155.067.01.13 0 0M61.74 68.587c.122.377.122-.376 0 0M68.69 69.221c0-.107-.186-.134-.212 0 .022.128.118.065.212 0M65.228 69.793c-.045-.044.07.07 0 0M70.446 70.01c-.045-.044.069.07 0 0M61.967 70.88c.07.07-.044-.044 0 0M60.5 71.37c-.257.355.356-.258 0 0M59.793 71.532c-.045-.044.07.07 0 0M70.217 71.848c.123.376.123-.377 0 0M71.315 71.967c-.045-.044.07.07 0 0M58.706 71.967c-.044-.045.07.07 0 0M68.256 71.957c-.083.046-.21.003-.213.21.083-.047.21-.004.213-.21M65.865 72.174c-.082.049-.21.006-.213.213.083-.047.21-.006.213-.213M45.143 60.87c.069-.334.173-.457-.131-.653-.276.23-.226.453-.654.26-.072.29.25.187.261.392.358.012.264-.217.524 0M46.3 60.308c-.002-.107-.187-.134-.213 0 .12-.011.166.154.213 0M46.967 60.228c.07.07-.045-.044 0 0M46.532 60.445c-.044-.044.07.07 0 0M46.75 60.445c.07.07-.044-.044 0 0M44.13 60.543c.124.377.124-.376 0 0M47.184 60.663c.07.07-.043-.045 0 0M44.53 60.652c-.419.03.02.468 0 0M45.217 60.978c.124.377.124-.376 0 0M45.445 61.315c-.044-.044.07.07 0 0M45.663 61.315c-.045-.044.07.07 0 0M45.203 61.74c.093-.39-.28-.281-.406-.436-.092.39.28.28.406.435M45.648 61.522c-.083.047-.21.005-.213.211.082-.046.21-.005.213-.211M45.643 63.26c.01-.272.053-1.203-.208-.743.35.19-.236.727.208.744"/>
        <path d="M45.43 62.917c-.001-.108-.186-.134-.213 0 .023.128.118.065.213 0M43.69 62.826c-.082.047-.209.005-.212.211.082-.047.21-.005.213-.21M45.009 62.826c-.086.926.487.102 0 0M45.88 62.836c-.044-.043.07.07 0 0M44.14 63.054c.07.07-.043-.044 0 0M44.359 63.054c.07.07-.045-.044 0 0M45.663 63.489c.07.07-.045-.045 0 0M45.228 63.706c.07.07-.045-.044 0 0M45.663 64.141c-.045-.044.07.07 0 0M44.13 64.24c.123.376.123-.377 0 0M43.489 64.576c-.045-.045.07.07 0 0M44.14 64.793c-.043-.044.07.07 0 0M45.663 64.793c-.045-.044.07.07 0 0M46.517 64.631c-.12.012-.166-.154-.213 0 .002.108.187.134.213 0M45.218 64.857c.154-.065-.01-.128 0 0M45.066 64.783c-.154.065.011.128 0 0M44.348 65.35v.262c.243.204.29-.443.099-.392-.006.08-.015.155-.1.13M45.865 66.087c-.083.048-.21.006-.213.213.083-.048.21-.006.213-.213M45.5 66.37c-.257.355.356-.258 0 0M45.43 67.391c-.083.048-.21.006-.213.212.083-.048.21-.006.212-.212M44.14 68.054c-.043-.045.07.07 0 0M47.184 68.054c-.043-.045.07.07 0 0M45.228 68.271c-.044-.044.07.07 0 0M45.865 68.352c0-.108-.187-.134-.213 0 .023.128.118.064.213 0M43.706 68.489c-.044-.045.07.07 0 0M45.647 68.696c-.082.048-.209.007-.212.213.083-.049.21-.006.212-.213M43.924 68.924c.07.069-.045-.045 0 0M44.53 68.91c.019-.468-.419-.03 0 0M44.348 68.914c.065.154.128-.011 0 0M44.14 69.793c-.043-.044.07.07 0 0M43.706 70.01c-.044-.044.07.07 0 0M44.63 70.5c-.256.356.357-.257 0 0M13.707 68.49c-.046-.046.068.068 0 0M5.228 68.706c-.045-.044.07.07 0 0M13.054 68.924c-.044-.045.07.07 0 0M12.837 69.141c-.045-.045.07.07 0 0M12.41 69.604c.637-.258.34.461.585.613-.02-.266.414-.056.584-.122.15-.29-.015-.228.117-.613-.574-.234-.313.407-.701.367-.01-.334.194-.246 0-.49-.221.055-.705-.166-.585.245"/>
        <path d="M12.106 69.783c.035-.198.234-.234.285-.416-.293-.12-.638.36-.285.416M6.315 69.576c.07.07-.045-.045 0 0M11.235 69.788c-.051.251.083.318.121.48-.532.154-.77-.302-.484-.6-.54-.304-.866.13-1.09.481.387.257.915.374 1.332.6-.01-.17-.02-.34.12-.36.018.224.08.401.244.48.242-.13 1.085-.354.484-.6.02.14-.027.214-.121.24.048.233-.552.175-.363-.12.154.006.167.154.363.12-.197-.322-.279-.457 0-.72-.196-.034-.209.113-.363.12 0 .066-.099.136-.122 0h.122c-.004-.117-.149-.094-.243-.12"/>
        <path d="M10.339 70.059c.102.348-.318.017 0 0-.011-.101.154-.052 0 0M11.3 69.565c-.082.048-.21.005-.213.213.083-.047.21-.007.213-.213M4.793 69.995c.243.006.363-.082.424-.212-.222.01-.49-.015-.424.212M5.228 69.793c.07.07-.044-.044 0 0M5.436 69.68c.137.03.194.133.405.094.163-.261-.437-.259-.405-.094zM12.402 69.793c.07.07-.044-.044 0 0M8.26 69.868c-.42.017-.8.003-1.086-.085.048.259 1.124.285 1.086.085M40.434 79.737c-.42.032-.8.005-1.086-.172.048.519 1.124.57 1.086.172M7.174 70.868c-.125-.306.037-.858-.435-.868.241.207-.092.906.435.868M8.478 70.217h.434c.018-.186-.144-.242-.434-.207v.207"/>
        <path d="M8.924 70.213c.243.005.362-.083.424-.213-.223.01-.492-.014-.424.213M9.566 70.074c.154-.065-.01-.128 0 0M12.183 70c-.085.925.487.102 0 0M12.822 70.09c-.002-.107-.187-.133-.213 0 .022.13.117.066.213 0M9.632 70c-.155.065.01.129 0 0M9.13 70.326c.123.377.123-.376 0 0M16.3 70.743c-.002-.108-.187-.134-.213 0 .022.128.118.065.212 0M12.837 71.532c-.045-.044.07.07 0 0M50.672 59.803c.132.131-.084-.084 0 0zm1.305-.435c.13.13-.084-.084 0 0zm-3.261 0c-.084-.084.13.13 0 0zm-.87 0c.131.13-.084-.084 0 0zm-1.739 0c.13.13-.084-.084 0 0zm2.806.415c-.084.032-.214.003-.217.147.084-.033.214-.005.217-.147zm4.13-1.74c.233.754.233-.753 0 0zm-5.637 1.972c-.062-.062.097.096 0 0zm-14.565-.435c-.062-.062.096.097 0 0zm13.029-.644c-.478-.141-.024.44 0 0zm3.043-.24c-.084.033-.214.004-.217.147.084-.033.214-.004.217-.147zm-2.826.217c.185-.027.148-.216 0-.217v.217zm0-.267c-.194-.448-.873.16 0 0zm-1.072.064c-.062-.061.096.097 0 0zm-.218 0c-.061-.061.097.097 0 0zm-7.188-.21c-.477-.14-.024.442 0 0zm9.782-.065c-.303.147-.545-.457-.652 0 .288.134.505.512.652 0zm-6.087-.151c-.477-.142-.023.44 0 0zm-3.331-.018c-.126-.027-.14.057-.147.147.125.027.138-.057.147-.147zm12.911.01c-.062-.062.097.096 0 0zm-9.58.153c.478.141.024-.441 0 0zm-3.26-.065c.214-.09-.015-.178 0 0zm-3.247-.088c-.061-.062.097.096 0 0zm14.783 0c-.062-.062.097.096 0 0zm-2.609 0c-.062-.062.097.096 0 0zm-1.521 0c-.062-.062.096.096 0 0zm.637-.325c-.001-.148-.19-.184-.217 0 .121-.015.169.215.217 0zm.527-.342c-.215.09.014.178 0 0zm-1.164.232c-.062-.061.096.096 0 0zm1.703-.015c.147-.333-.54-.705-.393-.151.159.028.196.152.393.151zm-2.138-.203c-.062-.061.096.097 0 0zm.435-.217c.096.096-.062-.062 0 0zm-1.102-.015h.217v-.217h-.217v.217zm8.058-.202c.096.096-.062-.062 0 0zm-4.974-.086c.084-.597-.125.882 0 0zm-1.78-.146c-.084.032-.214.004-.217.146.084-.032.214-.003.217-.146zm.884.014c.097.097-.06-.062 0 0zm-.652 0c.097.097-.061-.062 0 0zm2.826-.435c-.061-.06.097.097 0 0zm-5.37.064c-.312.432.431-.31 0 0zm4.486-.17c-.001-.149-.19-.185-.217 0 .122-.015.169.214.217 0zm-2.391.092h.217v-.218h-.217v.218zm.45-.203c-.062-.062.096.097 0 0zm-3.059-.232c-.084.033-.214.004-.217.148.084-.033.214-.005.217-.148zm3.276.015c-.062-.062.097.096 0 0zm-17.174 0c-.062-.062.096.096 0 0zm17.811-.233c.17.754.17-.752 0 0zm-1.29.015c-.061-.061.097.097 0 0zm.855-.232c-.084.033-.214.004-.217.147.084-.033.214-.004.217-.147zm-.854.015c-.062-.062.096.096 0 0zm-.45-.015c.17.753.17-.753 0 0zm-1.29.015c-.061-.062.097.096 0 0zm-.652 0c-.061-.062.097.096 0 0zm-.87 0c-.061-.062.097.096 0 0zm4.551-.305c.28.885.3-.592 0 0zm-1.724-.13c-.062-.062.096.096 0 0zm-2.609 0c-.062-.062.097.096 0 0zM48.57 55c-.338.61.411.549 0 0zm-.768.43c.119-.518-.21-.506-.41-.647.058.31.05.697.41.647zm-1.705-.647c-.09.925.51.102 0 0zm-4.777.014c-.062-.061.097.097 0 0zm-9.782-.217c-.063-.062.096.096 0 0zm16.304-.218c-.062-.061.096.097 0 0zm-2.406.008c-.477-.14-.024.442 0 0zm.87-.148c-.123.016-.17-.214-.218 0 .001.149.19.185.217 0zm-.652.012c.214-.09-.015-.178 0 0zm-2.3-.104c-.214.09.015.178 0 0zm.126.104c.214-.09-.015-.179 0 0zm2.608-.321c-.17.023-.412-.026-.435.147.171-.023.411.025.435-.147zm-1.087 0c.17.753.17-.753 0 0zm-1.072-.202c.096.096-.062-.063 0 0zm4.13-.218c.097.096-.062-.062 0 0zm-1.971-.015c.17.753.17-.753 0 0zm1.102-.202c.096.096-.062-.062 0 0zm2.594-.015c.17.753.17-.753 0 0zm-16.508.015c.097.096-.06-.062 0 0zm9.131-.435c.097.096-.062-.062 0 0zm-8.26 0c.096.096-.062-.062 0 0zm13.043-.217c-.062-.062.096.096 0 0zm-3.479 0c-.061-.062.097.096 0 0zm-6.319-.324c-.001-.15-.19-.186-.217 0 .122-.015.169.213.217 0zm-3.834-.047c-.312.431.432-.312 0 0zm.801-.08c.244.007.363-.083.425-.216-.223.01-.492-.015-.425.217zm13.483-.202c-.062-.062.096.097 0 0zm-3.913 0c-.062-.062.096.097 0 0zm-3.478 0c-.062-.062.096.097 0 0zm3.913-.652c-.062-.062.096.096 0 0zm-10.885.271c.185.008.2.183.435.143.007-.245-.112-.366-.29-.429 0 .144-.117.17-.145.286zm-1.304-.068c.17.753.17-.753 0 0zm20.435-.218c.17.753.17-.753 0 0zm-5.42.015c-.062-.062.096.096 0 0zm-15.87 0c-.062-.062.097.096 0 0zm1.576-.015c.007-.185.183-.2.142-.434-.167.022-.405-.025-.428.145.189.001.13.253.286.29zm-2.663-.202c-.062-.062.097.096 0 0zm17.61-.45c-.123.944.51.068 0 0zm-4.784.015c-.062-.062.097.096 0 0zm6.29-.232c-.084.033-.215.004-.218.147.084-.033.215-.004.218-.147zm-2.174.42c.185.077.205-.164.217-.42h-.217v.42zm-2.826-.203h.217v-.217h-.217v.217zm-12.519-.217c-.337.61.412.549 0 0zm15.78-.114c.214-.091-.014-.178 0 0zm-.332.206c-.09-.214-.178.015 0 0zm-.755-.184c-.002-.149-.191-.185-.218 0 .122-.015.17.214.218 0zm-.42.106c-.062-.061.096.097 0 0zm-12.609 0c-.062-.061.096.097 0 0zm-.87 0c-.061-.061.097.097 0 0zM48.696 50c.17.753.17-.753 0 0zm-.638.015c-.061-.062.097.096 0 0zm-.45-.015c.172.753.172-.753 0 0zm-.869-.098c-.001-.141-.19-.176-.217 0 .023.169.12.086.217 0zm-3.055.75c.067-.546-.176-.71-.423-.87.016.445.259.61.423.87zm-9.321-.637c-.062-.062.096.096 0 0zm-2.02-.232c-.442.023.14.477 0 0zm-.59.232c-.06-.062.098.096 0 0zm15.436-.218c-.062-.061.096.097 0 0zm-15.015-.064c.477.141.023-.44 0 0zm-1.74-.14c.195.447.873-.16 0 0zm15.653-.028c.17.753.17-.753 0 0zm-12.609.126c-.001-.149-.19-.185-.217 0 .122-.015.169.213.217 0zm-2.94-.034c-.09-.214-.178.015 0 0zm25.346-.294c.096.096-.061-.063 0 0zm-8.048-.015c.243.006.363-.084.425-.218-.222.01-.49-.014-.425.218zm-1.314-.218c-.085.033-.214.004-.218.148.085-.033.215-.005.218-.148zm-2.952 0c-.214.09.015.178 0 0zm-7.469.233c.097.096-.06-.063 0 0zm-.651 0c.096.096-.062-.063 0 0zm-3.261 0c.096.096-.062-.063 0 0zm-.45-.015h.218v-.218h-.218v.218zm-2.159.015c-.062-.063.097.096 0 0zm27.16-.45c-.085.033-.215.004-.218.147.084-.033.214-.004.217-.147zm-1.29.232c.096.096-.062-.062 0 0zm-11.754.089c.214-.091-.014-.178 0 0zm-12.377-.089c.097.096-.062-.062 0 0zm24.783-.217c.096.096-.062-.062 0 0zm-1.957 0c.097.096-.062-.062 0 0zm-7.188.149v.326c.281-.013.502.036.646.162.048-.32-.219-.323-.323-.488.098-.01.192-.025.161-.164-.222-.007-.355.077-.484.164zm-8.261-.164c-.171.023-.412-.026-.435.147.17-.022.411.026.435-.147zm-2.735 0c-.213.09.015.178 0 0zm-4.004 0c-.085.033-.215.004-.218.147.085-.033.215-.003.218-.147zm11.536-.203c.097.097-.062-.061 0 0zm-7.405.089c.214-.09-.015-.178 0 0zm12.405-.088c-.062-.063.096.096 0 0zm-.667-.015h.217v-.218h-.217v.218zm-9.55.015c-.062-.063.096.096 0 0zm-5.45-.14c-.122.014-.169-.215-.217 0 .001.148.19.184.217 0zm21.102-.078c-.062-.062.096.096 0 0zm-21.971-.232c-.085.033-.215.004-.218.147.085-.033.215-.004.218-.147zm-1.942.232c-.062-.062.096.096 0 0zm9.348-.217c-.062-.062.096.096 0 0zm-4.783 0c-.062-.062.096.096 0 0zm-1.087 0c-.062-.062.096.096 0 0zm-2.609 0c-.062-.062.097.096 0 0zm27.392-.218c-.062-.061.096.097 0 0zm-1.957 0c-.062-.061.097.097 0 0zm-.652 0c-.062-.061.096.097 0 0zm-8.184-.015c-.214.091.015.178 0 0zm-1.56.653c-.021-.29.196-.341.16-.647-.6-.068-.494.484-.16.647zM45 48.26h.217v-.218H45v.218zm-7.609 0c.171.753.171-.753 0 0zm-3.092-.218c-.442.024.14.478 0 0zm22.875-.194c.023.44.477-.141 0 0zm-.42.21c-.062-.062.097.096 0 0zm-10.667-.233v.147c.167-.027.081-.147 0-.147zm-11.738.103c.213-.09-.016-.178 0 0zm-.436-.103c-.17.023-.412-.025-.435.147.17-.023.411.025.435-.147zm-.87.422c-.39.143-.554-.861-.87-.186.066.205.696.71.87.186zm-2.159-.19c-.062-.061.097.097 0 0zm26.393-.14c-.09-.214-.178.015 0 0zm-1.175-.077c-.062-.062.096.096 0 0zm-8.688-.015c.441-.023-.14-.477 0 0zm-1.441.092c-.09-.214-.178.015 0 0zm-10.756-.31c-.084.034-.214.005-.217.148.084-.033.214-.004.217-.147zm-4.55.233c-.062-.062.096.096 0 0zm24.425-.232c-.214.09.015.178 0 0zm-22.266.217c.25.005.372-.084.435-.217-.25-.006-.371.084-.435.217zm22.391-.266c.478.14.024-.442 0 0zm-9.333-.154c-.061-.062.097.097 0 0zm-14.13 0c-.062-.062.097.097 0 0zm2.999-.015c.157-.633-.347-.373-.623-.421.103.283.332.393.623.421zm21.769-.217h.217v-.217h-.217v.217zm-17.517-.217c-.214.09.015.178 0 0zm-2.033.015c-.119.509.509-.119 0 0zm18.898-.015c.17.753.17-.754 0 0zm-16.956-.115c.213-.09-.015-.177 0 0zm-4.784-.103h-.42c-.077.185.164.205.42.218v-.218zm-.652.435c-.057-.367-.106-.742-.652-.633.02.402.237.614.652.633zm15.015-.637c-.062-.062.096.096 0 0zm-11.536.138c-.16.02-.315-.716-.468-.166.643.187-.641.477 0 .665.115-.156.284-.252.468-.333v-.166zm-5.435-.463c-.002-.148-.19-.185-.218 0 .122-.014.17.214.218 0zm15.87-.239c-1.07-.366-.645.387 0 0zm-6.522.114c.17.753.17-.753 0 0zm-7.827-.222c.259-.01.622.055.653-.114-.241-.132-.411-.132-.653 0v.114zm14.798-.198c.096.097-.062-.062 0 0zm-1.087 0c.096.097-.062-.062 0 0zm-4.783 0c-.061-.062.097.097 0 0zm-7.693-.232h-.148c.028.167.148.081.148 0zm-1.017 0h-.42c-.077.185.164.204.42.217v-.217zm-1.724.232c.096.097-.063-.062 0 0zm24.782-.217c.097.096-.062-.062 0 0zm-7.174 0c.097.096-.062-.062 0 0zm-1.754-.21c-.477-.14-.022.441 0 0zm-1.739-.022c.09.215.178-.015 0 0zm-6.592 0h-.147c.028.167.147.08.147 0zm-.8 0c.092.215.179-.015 0 0zm-3.765.004c-.126-.026-.14.058-.147.148.125.027.138-.058.147-.148zm-3.408.115c-.001-.141-.19-.176-.217 0 .023.169.12.086.217 0zm-.435 0c-.001-.141-.19-.176-.217 0 .023.169.12.086.217 0zm-6.29.113c.097.096-.061-.062 0 0zm-8.695 0c.097.096-.062-.062 0 0zM48.478 45c-.084.033-.214.004-.217.147.084-.033.214-.004.217-.147zm-2.94.31c-.09-.215-.178.014 0 0zm-.74-.078c.096.097-.062-.061 0 0zm-.87 0c.096.097-.062-.061 0 0zm-.826.203c-.007-.2.074-.319.159-.435h-.319c-.177.209-.171.353.16.435zm-.696-.203c.097.097-.062-.061 0 0zm-3.346-.08v-.147c-.125-.027-.139.057-.147.147h.147zm-3.625-.005c-.003-.143-.133-.114-.218-.147.003.143.133.114.218.147zm-3.898.085c.096.097-.063-.061 0 0zm15.984-.015c.908-.156-.556-.399 0 0zm-.55-.202c.097.096-.062-.062 0 0zm-6.536.202c.17.754.17-.753 0 0zm-.652-.092c-.027-.185-.217-.148-.218 0h.218zm-3.899-.11c.097.096-.062-.062 0 0zM34.783 45c.003.143.133.114.217.147-.003-.143-.133-.114-.217-.147zm-4.348 0c.09.215.178-.014 0 0zm19.348 0c.17.753.17-.753 0 0zm-5.435 0c.17.753.17-.753 0 0zm-5.07-.217c-.144.002-.115.133-.148.217.143-.003.115-.133.147-.217zM36.738 45c.17.753.17-.753 0 0zm-1.957-.217c-.222.243-.935.291-.529.652h.177c.01-.1.026-.194.175-.164.094-.13.184-.265.177-.488zm-1.724.232c.096.096-.062-.062 0 0zm-2.688-.085c.027-.126-.058-.14-.148-.147-.026.125.058.138.148.147zm-.587-.125c-.478-.141-.024.441 0 0zm19.348-.136c.214-.091-.014-.179 0 0zm-.87.206c.405.047.749.33.87-.154-.142-.03-.174-.156-.349-.156-.039.223-.52.054-.521.31zM45.786 45h.261c.203-.487-.444-.582-.392-.198.08.011.155.03.13.198zm-1.936.085c.04-.264-.091-.757-.147-.387-.04.263.091.756.147.387zm-1.163-.441c-.31.432.432-.312 0 0zm-14.411.154c.096.096-.062-.063 0 0zm16.304-.218c-.062-.061.097.096 0 0zm-.652 0c-.062-.061.096.096 0 0zm-2.46.619c.438.117.315-.352.489-.51-.513.195-.396-.268-.653-.341v.51c.159.005.127.209.164.34zm-4.511-.634c.17.753.17-.753 0 0zm-1.522 0c.17.753.17-.753 0 0zm-4.565 0c.17.753.17-.753 0 0zm-.943-.217c-.027.088-.145.108-.144.217h.434c-.064-.097-.127-.194-.29-.217zm-13.173.232c-.062-.061.097.096 0 0zm29.719-.232c-.441.023.14.477 0 0zm-4.284.015c-.062-.062.096.096 0 0zm-.45.202h.218v-.217h-.218v.217zm-9.565.296c.336.07.015.783.695.513-.304-.606.116-.42.174-1.026-.444.019-.608.313-.87.513zm-3.182-.435c-.312.432.432-.31 0 0zm20.356-.296c-.084.033-.215.005-.218.148.084-.033.215-.004.218-.148zm-8.913 1.087c.17-.753.17.754 0 0zm.703-1.085c-.817-.04-.68.795-1.658.608v-.304c-.134-.03-.165-.153-.332-.152-.145.374-.735.34-.664.912h.333c.009-.093.024-.18.165-.152.037-.118.004-.3.166-.304-.037.118-.005.3-.166.304v.152c.268.043.286-.143.498-.152.002-.153.29-.191.331 0h-.33c.088.314.784.036.33.456.45-.14.783-.242.996.152.013-.24-.08-.58.166-.608-.027.176.036.27.165.304-.046-.246.157-.262.166-.456-.597.145-.293-.657-.166-.76zm-1.106-.002c-.035.304-.465.074-.467.422.275-.048.78.212.623-.422h-.156zm-10.674.218c.243.005.363-.084.425-.218-.223.01-.491-.014-.425.218zm19.12-.271c.41.305-.27.018-.49 0 .047.263-.153.28-.162.488.477-.146.501-.146.979 0a.385.385 0 0 0-.326-.651v.163zm-1.956-.164v.42c.185.078.205-.164.217-.42h-.217zm-1.087.217c.17.754.17-.753 0 0zm-5.07-.212c-.126-.027-.14.058-.148.147.126.027.14-.057.148-.147zm-.708-.005c-.214.09.015.178 0 0zm-5.744 0c-.085.033-.214.004-.217.147.084-.033.214-.004.217-.147zm-3.382 0c-.167.028-.082.148 0 .147v-.147zm-1.835 0c-.085.033-.215.004-.218.147.085-.033.215-.004.218-.147zm-1.087.435h.433c.019-.373-.143-.486-.433-.415v.415zm20.805-.505c.026-.125-.058-.14-.148-.147-.027.125.058.139.148.147zm-1.3.434c.346-.08.222.275.468.288.133-.47-.264-1.181-.625-.72.52-.1.252.297.156.432zm-6.68-.578v.148c.341.018.235-.18 0-.148zm-.434.002c-.127-.024-.193.033-.217.147.126.024.193-.032.217-.147zm-1.304.338c-.002-.15-.19-.186-.218 0 .122-.016.17.214.218 0zm-7.392.483c.555.208.42-.386.423-.82-.535-.09.145.709-.423.82zm-14.333-.594c-.061-.062.097.096 0 0zm24.768.194c.423.04.695-.052.647-.425-.406-.025-.393.317-.647.425zm-.87-.21c.25.006.372-.082.435-.216-.25-.006-.371.083-.434.217zm6.522-.434c-.084.033-.214.004-.217.148.084-.034.215-.004.217-.148zm-8.043.135c.537.32.62-.425 0 0zm-1.29.097c-.061-.061.097.097 0 0zm-.666-.232c-.024.947.499.06 0 0zm-6.24.363c-.752-.001-1.005-.713-1.587-.14.375-.036.607.75.953.279-.088 0-.18-.113 0-.14v.14c.208.018 1.149.02.635-.14zm-2.022-.237c0-.149-.19-.185-.217 0 .122-.016.17.214.217 0zm23.493-.111c-.061-.062.097.096 0 0zm-5.014-.095c.236.078.402.22.639.298.118-.33-.59-.613-.64-.298zm-5.288-.137h-.147c.028.167.148.082.147 0zm-3.843 0c.09.214.178-.015 0 0zm-6.739 0v.147c.167-.028.082-.148 0-.147zm15.015.015c-.062-.062.096.096 0 0zm-4.362.088c.214-.09-.015-.178 0 0zm-.332-.011c-.091-.214-.178.015 0 0zm-1.176-.077c-.061-.062.097.096 0 0zm-.884.637h.335c.086-.414.285-.632-.335-.652v.652zm-1.587-.505c.027-.125-.057-.139-.147-.147-.027.126.057.139.147.147zm-1.07.07c.14-.477-.442-.023 0 0zm-21.69-.217c-.085.033-.215.004-.218.147.084-.033.214-.003.217-.147zm32.973-.218h-.146c-.02.34.18.235.146 0zm-2.524.015c-.062-.062.096.097 0 0zm-2.841.11c-.002-.147-.19-.184-.218 0 .122-.014.17.215.218 0zm-5 .043c-.195-.447-.873.16 0 0zm-2.377 1.804c-.062-.062.097.096 0 0zM36.74 45c.17-.753.17.753 0 0zm.218-.435c.17-.753.17.753 0 0zm-1.522 0c.17-.753.17.753 0 0zm-1.74-.505c.004-.143.133-.114.218-.147-.003.143-.133.114-.217.147zm4.783.29c-.358-.089-.23.311-.484.326-.445-.435.19-.354.162-.814-.769-.008-.391.379-.646.651-.37-.417-1.008.056-.97-.488-.616.095-.504-.005-.806.488-.014-.258.077-.62-.162-.65-.105.406-1.01-.584-1.291 0 .183.03.09.163 0 .162-.455-.164.044-.691 0-.976-1-.102-.295 1.204-1.454.65-.02.292.198.344.162.652.15.173.596.05.485.488.601.173.255-.61.807-.488.219.56-1.12.87-.162 1.139-.372-.36.28-.408.485-.651.006.223-.077.357-.162.487.283-.044.806.459.969 0-.126-.036-.319-.004-.323-.162-.125-.036-.319-.004-.323-.163.125.037.319.005.323.163.125.036.318.005.323.162.446.483 1.225-.375 1.453.326.391-.541.885-.001 1.292-.326.129-.303.27-.595.322-.975zm-6.573-.22c.814-.039.368-.849.331-1.086-.283-.007-.429.115-.497.31.093 0 .188.126 0 .155v.31c.162.005.129.19.166.311zm-2.122-.665c.275-.046.78.205.622-.407-.354-.057-.584.049-.622.407zm18.913-.47c.477.14.023-.442 0 0zm-.332-.077c-.09-.214-.178.015 0 0zm-1.407-.065c-.873-.159-.195.448 0 0zm-2.377.205c-.062-.062.097.096 0 0zm-2.189-.232c-.084.034-.214.004-.217.148.084-.034.215-.004.217-.148zm-2.952 0c-.213.09.015.178 0 0zm-3.57.03c-1.228-.17-.42.45 0 0zm13.276-.015c-.062-.061.097.096 0 0zm-5.99-.061h.455c.024.189-.026.455.151.48-.006-.22.071-.351.152-.48-.018-.228-1.238-.228-.757 0zm-2.053.06c-.062-.06.096.097 0 0zm-.27.17c.256-.538-.86-.47-.831-.178.4-.073.36.326.83.179zm-2.48-.401c-.213.09.016.178 0 0zm-2.7.32c.215-.09-.014-.178 0 0zm-.87-.298c-.477-.14-.023.441 0 0zm-.777-.022c-.214.09.015.178 0 0zm-3.788 0c-.084.033-.214.004-.217.147.084-.033.214-.004.217-.147zm-.652.022c-.477-.14-.023.441 0 0zm24.363-.007c-.062-.062.096.096 0 0zm-1.754-.015c.171.753.171-.753 0 0zm-.56 0c-.214.09.015.178 0 0zm-.947.015c-.062-.062.097.096 0 0zm-5.652 0c-.062-.062.096.096 0 0zm-3.261 0c-.062-.062.096.096 0 0zm-7.624-.012v.148c.341.019.235-.18 0-.148zm-2.39.214c.222-.01.49.015.424-.217h-.283c0 .109-.115.13-.142.217zm-1.957-.114c.215-.09-.014-.178 0 0zm18.927-.306c-.061-.062.097.096 0 0zm-5 0c-.061-.062.097.096 0 0zm-4.578.343c.168-.028.257.038.289.17.37-.007.176.128.145.342H40v-.342c-.135-.181-.534-.053-.434-.511-.29-.059-.453.035-.434.341zm-.328-.358c-.04.149-.324.093-.326.274.1.04.628.341.652 0-.177-.034-.11-.272-.326-.274zm-.746.015c-.061-.062.097.096 0 0zm-1.319.637c.456.009 1.402-.327.982-.652-.252.293-.96.131-.982.652zm-.652-.434c.17.753.17-.753 0 0zM35 42.826v-.42c-.185-.078-.205.164-.217.42H35zm-2.391.34c.276.067.364.335.724.31.036-.322.383-.955-.145-1.085.07.54-.363.542-.58.775zm1.303-.557c.023-.947-.499-.061 0 0zm18.48-.652c.09.214.177-.014 0 0zm-.653.434c.188-.032.194-.432 0-.434v.434zm-4.858.29c.526-.176.496-.661 1.03-.29-.152.043-.872.29-.344.435.173-.29.76-.229.688-.724-.66-.34-1.11.15-1.718-.145-.128.446.593.176.344.724zm-7.316-.507c.185-.027.149-.216 0-.217v.217zm-1.956-.098c-.002-.142-.19-.176-.218 0 .023.169.12.086.218 0zm-6.595.49c.486.104.53-.256.58-.61-1.129.156-.537.838-.724 1.522.341.003.427-.261.87-.152v-.152c-.266-.178-.492-.398-.726-.609zm-.58-.484c0-.149-.19-.185-.217 0 .122-.015.17.214.218 0zm22.827-.034c-.122.015-.17-.213-.218 0 .001.149.19.186.218 0zm-.984 0c-.09-.213-.178.015 0 0zm-.652 0c-.09-.213-.178.015 0 0zm-5.973.126c.25.005.371-.084.435-.217-.25-.006-.372.083-.435.217zm-.435-.218c.17.754.17-.752 0 0zm-3.463.015c-.062-.061.096.097 0 0zm-.886.181c-.265.015-.474-.043-.609-.195-.244.543.657.54.609.195zm-1.417-.104c-.09-.213-.178.015 0 0zm-.932.055c.084-.597-.124.882 0 0zm9.974-.35c-.062-.06.096.098 0 0zm-1.754-.014h-.42c-.077.185.164.205.42.218v-.218zm-8.696.023c.024.44.478-.141 0 0zm-.995-.023c-.213.09.015.178 0 0zm-4.06.435c.041-.221.354-.099.485 0 .048-.374-.225-.466-.647-.426.025.167-.028.403.162.426zm17.027-.42c-.062-.062.096.096 0 0zm-.667-.115c-.72-.393-.42.36 0 0zm-5.218.403c.404.457.464-.458.866 0 .031-.376-.142-.548-.52-.517.052.338-.232.342-.346.517zm-12.608-.303c.17.753.17-.753 0 0zm19.362-.202c.097.096-.062-.062 0 0zm-4.923-.233c-.213.091.015.178 0 0zm-8.857.314c-.028-.167-.147-.082-.147 0h.147zm-6.021.104c.046-.367-.32-.359-.612-.418-.154.466.212.458.612.418zm15.656-.124c.1.008.192.02.163.141h.326c-.007-.195.077-.31.163-.424-.372-.04-.613.033-.652.283zm-3.043-.294c.17.753.17-.753 0 0zm-.692.218c.203-.487-.444-.582-.392-.199.21-.055.225.188.392.199zm-4.091-.218c-.084.033-.214.004-.217.147.084-.032.214-.004.217-.147zm-1.304.002c-.01.247.154.374.414.433.072-.29-.042-.452-.414-.433zm-5.218-.002c-.084.033-.214.004-.217.147.085-.032.214-.004.217-.147zm-1.853.092c-.09-.214-.178.015 0 0zm20.781-.077c.096.097-.062-.062 0 0zm-5.217-.03c.51.119-.118-.51 0 0zm-1.32.104c.17.373.684-.17.29-.306-.001.203-.253.14-.29.306zm-2.463-.306c-.077.115-.152.232-.145.429.206.012.41.023.435-.144-.157-.035-.098-.283-.29-.285zm-.362.092c-.122.015-.17-.214-.218 0 .001.148.19.185.218 0zm-2.392.56c.958-.275 1.188.047 1.74-.47-.722.088-.986-.278-1.74-.157v.157c.282.115.022.285 0 .47zm.096-.504v-.148c-.167.028-.082.148 0 .148zm-4.663.048c-.265.014-.473-.044-.608-.196-.244.544.656.54.608.196zm2.367-.077c-.365-.218-.348.085-.622-.336.148.662-1.282-.19-.935.336.776.071-.062.361-.156.505h.623c-.139-.588.508-.288.623-.168 0-.094.127-.191.156 0h-.156v.168c.405.1.56-.068.467-.505zm-4.322-.119c.185-.027.149-.216 0-.217v.217zm0 .217v-.409c-.383-.15-.178.406 0 .41zm14.566-.218c.947.024.06-.499 0 0zm-8.414-.434c-.262.44.342.929.574.464-.107 0-.217-.125 0-.155.09-.33-.274-.294-.574-.309zm-3.108 0c.09.215.178-.014 0 0zm-5.217.375c.35.585.64.141.87-.375-.372.02-.692.106-.87.375zm15.247-.375c-.157.633.346.373.622.422-.024-.39-.527-.13-.622-.422zm-2.407.015c.097.096-.061-.062 0 0zm5.203-.03c-.299.17-.536-.53-.64 0 .468.15-.097.57 0 .885.636-.193.224-.448.64-.885zm-8.043-.072c.156.907.399-.556 0 0zm-.87-.13c-.085.033-.214.004-.217.147.084-.033.214-.004.217-.147zm2.174-.217c.09.214.178-.015 0 0zm-6.522 0v.434h.435a.734.734 0 0 0-.435-.435zM49.565 40c-.17.023-.411-.026-.435.147.171-.023.412.026.435-.147zm-1.913 0c-.259.525-.28.496-.912.763-.026.33.539.069.76.152.042-.6.669.029 0 0v.305c.218.017.792.67.76 0-.614.006-.134-1.086-.608-1.22zm-2.195 0c-.14.477.441.023 0 0zm-6.67 0c-.213.09.015.178 0 0zm-3.352 0c-.085.033-.215.004-.218.147.085-.033.215-.004.218-.147zm-2.609 0c.003.179.558.384.41 0h-.41zM50 40c.09.214.178-.014 0 0zm-1.087.22c-.1-.054-.628-.467-.652 0 .303-.18.545.563.652 0zm-2.674-.073c.027-.125-.057-.139-.147-.147-.027.125.057.138.147.147zm-.587.008c.211-.003.458.63.433 0-.088-.009-.17-.022-.144-.15-.168-.024-.257.034-.289.15zm-.282-.008c.027-.125-.058-.139-.147-.147-.028.125.057.138.147.147zM42.826 40c-.084.033-.214.004-.217.147.084-.033.214-.004.217-.147zm-3.735.217c.203-.486-.444-.582-.392-.197.211-.056.225.187.392.197zM28.696 40c-.085.033-.215.004-.218.147.085-.033.215-.004.218-.147zm21.19-.125c-.091-.215-.178.014 0 0zm-4.669.076c-.023-.441-.477.14 0 0zm-.87.05c.171.752.171-.754 0 0zm-.836.216c.4.017.295-.32.587 0 .228-.58-.815-.58-.587 0zm-3.276-.43c-.12.65.414.585.634.865.014-.472-.264-.348 0-.692-.284.022-.335-.212-.634-.173zm8.243-.221c.09.214.178-.015 0 0zm-9.09.146c-.124.881.085-.598 0 0zm-1.127.138c-.198-.034-.234-.234-.415-.285-.122.293.359.639.415.285zm-1.072-.053c-.062-.061.096.097 0 0zm-4.354-.232c-.06.234.201.25.213.435h.213v-.29c-.173-.027-.211-.145-.426-.145zm17.817-.003c-.303.18-.545-.562-.652 0 .1.055.628.467.652 0zm-9.782.308c.246.326 1.111.02 1.359.347.094-.109.69-.525.17-.695-.258.258-.746.28-1.19.348-.146-.14-.101-.476-.34-.522v.522zm-5.435-.305c.17.753.17-.753 0 0zm15.232-.202c-.062-.062.097.096 0 0zm-1.087 0c-.062-.062.097.096 0 0zm-.45-.014c.09.214.178-.015 0 0zm-1.521.619c-.97.268-.637-.655-1.353-.62.072.324-.116.41-.169.62.103.008.2.023.169.154.598.067.963.238 1.353-.154zm-13.43.55c-.009-.288.12-.429.314-.502.012.291-.036.52-.157.669.211.228 1.096.318 1.099-.168-.297-.037-.346.189-.628.168 0-.168-.127-.2-.157-.335.511-.211-.007-.67 0-1.002-.157.508-.26.213-.471 0 .146.625-.666.957 0 1.17zm-.45-1.17c-.166.159-.048.63-.468.512v.342c.442.126.924-.562.469-.854zm12.032.217c.019-.17.235-.329 0-.435-.02.172-.235.33 0 .435zm-.978-.217c.17.753.17-.753 0 0zm-13.604-.218c-.214.091.015.178 0 0zm-14.208.233c-.061-.062.097.096 0 0zm32.609-.218c-.062-.062.097.096 0 0zm-1.754.196c-.489.023-.403-.428-.865-.428-.052.539.35.912.865.428zm-7.135-.428c-.047.362-.759.042-.686.526.327.33.31-.104.857 0 .015-.248.028-.496-.17-.526zm-8.3.218c.17.752.17-.754 0 0zm-1.956 0c.17.752.17-.754 0 0zm18.493-.203c-.062-.062.096.096 0 0zm-.314-.232c-.589.16-.841.71-.17.87-.174-.524.382-.31.686-.349-.068-.391-1.072.026-.516-.521zm-2.092 0c-.085.032-.214.004-.218.147.085-.033.215-.004.218-.147zm-.855.232c-.062-.062.097.096 0 0zm-.45-.232c-.084.032-.214.004-.217.147.084-.033.214-.004.217-.147zm-1.072.232c-.061-.062.097.096 0 0zm-3.06-.223c-.01.002.01.13 0 .14-.749.763.757-.259 0-.14zm-2.81.223c-.061-.062.097.096 0 0zm-3.927-.232c-.085.032-.215.004-.218.147.084-.033.215-.004.218-.147zm-4.55.232c-.062-.062.096.096 0 0zm23.028-.232c-.084.033-.214.004-.217.147.084-.033.214-.004.217-.147zm-12.174 0c-.084.033-.214.004-.217.147.084-.033.214-.004.217-.147zm-1.29.014c-.061-.061.097.097 0 0zm-6.223-.014c-.166.027-.082.147 0 .147v-.147zm18.165-.09c.61.337.55-.412 0 0zm-12.393-.118c-.011.001.01.13 0 .14-.75.762.757-.259 0-.14zm-4.563-.009c.09.214.178-.015 0 0zm18.913-.218c-.084.033-.215.004-.218.147.085-.033.215-.004.218-.147zm-.435 0c-.084.033-.214.004-.217.147.084-.033.214-.004.217-.147zm-.637.232c-.062-.062.096.096 0 0zm-1.102-.232c-.084.033-.214.004-.217.147.084-.033.214-.004.217-.147zm-.435 0c-.084.033-.214.004-.217.147.084-.033.214-.004.217-.147zm-.637.232c-.062-.062.096.096 0 0zm-2.624-.232c-.17.023-.41-.026-.434.147.17-.023.411.025.434-.147zm-17.174.415c.293.121.64-.359.285-.415-.034.197-.234.233-.285.415zM40 38.043c-.085.033-.214.005-.217.148.084-.033.213-.004.217-.148zm-5.701.435c.14-.477-.442-.023 0 0zm-6.256-.098c0-.141-.19-.176-.217 0 .023.17.12.086.217 0zm19.783.533c.478-.73 1.338-.007 1.74-.87-.619.491-1.758-.465-1.74.87zm-.42-.855c-.062-.062.097.097 0 0zm-6.536-.015c-.171.024-.412-.025-.435.148.17-.023.411.025.435-.148zm-6.073.015c-.061-.062.097.097 0 0zm14.769-.129c.213-.09-.015-.178 0 0zm-10.436.114h.218v-.217h-.218v.217zm-1.304-.187c-1.229-.17-.42.45 0 0zm-5.435 1.275c.17-.754.17.752 0 0zm1.412-.953c-.072.196-.21.327-.49.318.014-.226.027-.45-.163-.478-.15.873.006-.41-.49-.159.142.616-.272.69-.489.956-.241-.185-.41-.185-.653 0-.04.173-.324.107-.326.318.363.263.885-.034.979.16.052.369-.026.61-.163.795.524.14.224-.525.652-.477-.11.5.02.65-.162.795-1.075-.119-1.826-.553-3.1-.477-.244.81.472.127.652.16.079.013.258.26.49.317.326.082 1.284-.124 1.305.32.39.096 1.184-.2 1.305.159.164.001.205.278 0 .318-.026.185.036.283.163.319.637-.092.185-.801.816-.479.04-.623-.784-.402-.816-.955h-.163c.119.524-.324.244-.326 0h.326c-.009-.203-.209-.22-.163-.477.164-.001.194.129.326.159-.026-.185.036-.283.163-.319.021-.285-.2-.335-.163-.636-.09 0-.185-.13 0-.16v.16c.504.208.925-.452.49-.637zm-3.417-.352c-.441.023.14.477 0 0zm-5.82.217c.17.754.17-.753 0 0zm-1.508.015c-.061-.062.097.097 0 0zm25.42-.45c-.084.034-.215.005-.217.148.084-.033.214-.004.217-.147zm-20 .218h.218v-.217h-.218v.217zm17.624-.203c-.062-.061.096.097 0 0zm-5.652 0c-.062-.061.096.097 0 0zm-.45-.017c-.304.18-.545-.562-.652 0 .1.055.628.467.652 0zm-1.957-.192c-.477-.14-.022.441 0 0zm-.652-.023c-.17.024-.411-.025-.434.148.17-.023.41.025.434-.148zm-3.344.435h.261c.203-.487-.443-.582-.392-.198.08.011.155.03.13.198zm-1.873-.407c.194.447.873-.16 0 0zm-.649.483c.306.002.195.46.615.338.2-.667-.564-.41-.154-.845-.335-.03-.49.138-.461.507zm-.873-.115c.58.22.58-.577 0-.357v.357zm-.217-.178h.147v-.218h-.147v.218zm-2.594.014c-.062-.061.096.097 0 0zm-.667.148c.412.262.66-.499.143-.363-.027.147-.143.18-.143.363zm-2.594-.148c-.062-.061.096.097 0 0zm15.435-.217c.096.097-.062-.062 0 0zm-7.694.081c-.028-.167-.148-.082-.147 0h.147zm-1.229-.096c-.027.125.058.139.147.147.027-.125-.057-.138-.147-.147zm-.51.147c.027-.125-.057-.138-.147-.147v.147h.147zm-3.473 0c.027-.125-.057-.138-.147-.147-.028.125.057.139.147.147zm10.065-.341c.023.44.477-.142 0 0zm-8.478.069c-.122.015-.17-.214-.218 0 .002.148.19.185.218 0zm-3.448-.092c-.178 1.707.498.452 0 0zm-5.233.232c-.062-.062.096.096 0 0zm19.411-.153c-.31.431.433-.312 0 0zm-1.6-.146c.123.063.247.125.276.284h.14c.12-.293-.36-.639-.416-.284zm-.766.159c-.09-.214-.178.015 0 0zm-1.843-.016c.11 0 .13.114.218.141-.011-.222.014-.49-.218-.424v.283zm-7.39-.076c.17.753.17-.753 0 0zm-.218-.107c-.217-.211-.493-.1-.652.162.099.01.192.025.163.162h.326c.031-.13.164-.161.163-.324zM25 36.957c-.084.032-.214.004-.217.147.084-.033.214-.004.217-.147zm-2.377.232c.097.096-.061-.062 0 0zm9.244.202c.137-.208.132-.353-.123-.434-.01.205-.02.41.123.434zm26.394-.651c.09.214.178-.015 0 0zM38.4 37.826h.713c.13-.676-.552-1.458-1.07-.893.47-.054.585.248.534.714H38.4v.18zm-4.908-1.072c-.062-.062.096.096 0 0zm-3.058.67c.1.009.193.024.163.164.453-.204.453.536 0 .332.11.619.541-.123.652.496-.153.121-.247.302-.326.497h.488c-.051-.384.026-.635.164-.828-.348.078-.311-.236-.326-.497-.1-.009-.194-.024-.163-.165.1.01.192.025.163.165.45.072.152-.617.488-.662.028-.358-.578-.074-.814-.165.143.531-.423.343-.49.662zm-4.13-.459c.726.041-.198.634.347.852.186-.58.055.474.522.17v-.34c-.106-.01-.206-.026-.174-.17-.203-.105-.254-1.201-.696-.512zm-.42-.211c-.063-.062.096.096 0 0zm32.479-.14c-.09-.215-.178.015 0 0zm-15.755-.092c-.085.033-.215.004-.218.147.085-.033.215-.004.218-.147zm-5.435.217h.217v-.217h-.217v.217zm-6.087-.05c-.194-.447-.873.16 0 0zm-6.522-.167c-.084.033-.214.004-.217.147.084-.033.214-.004.217-.147zm11.087.067c-.197-.034-.233-.235-.415-.285-.121.293.36.64.415.285zm-6.087.15v-.435c-.117.125-.397.086-.435.29.117.077.235.151.435.145zm21.537-.42c.096.097-.062-.062 0 0zm-1.32.855c0-.444-.609-1.173-.869-.734.357.173.36.721.87.734zm-1.43-.87c-.213.09.016.178 0 0zm-.87 0c-.213.09.016.178 0 0zm-5.09 0h-.41c-.149.384.407.18.41 0zm-1.073.015c.097.097-.062-.062 0 0zm-.652 0c.096.097-.062-.062 0 0zm-1.423.638c.083-.241.238-.411.321-.653h-.64c-.046.372.038.614.32.653zm-3.143-.638c.097.097-.06-.062 0 0zm-3.912 0c.097.097-.062-.062 0 0zm-1.957 0c.097.097-.061-.062 0 0zm-2.84.192c-.104-.105-.494-.77-.653-.189.408-.25.396.882.652.19zm-.856-.192c.097.097-.061-.062 0 0zm-.666-.015c-.085.033-.215.005-.218.148.085-.033.215-.004.218-.148zm-.87 0c-.084.033-.214.005-.217.148.084-.033.214-.004.217-.148zm-1.522-.19c-.872-.16-.194.448 0 0zm-1.956.19c-.084.033-.215.005-.218.148.085-.033.215-.004.218-.148zm36.536-.202c-.062-.062.097.096 0 0zm-8.275.11c-.002-.148-.19-.185-.218 0 .122-.014.17.215.218 0zm-1.522.043c.873.16.194-.448 0 0zm-.652-.065c.214-.09-.014-.178 0 0zm-5.217 0c.214-.09-.015-.178 0 0zm-.332-.011c-.09-.214-.178.015 0 0zm-2.494.011c.214-.09-.015-.178 0 0zm-.767-.011c-.091-.214-.178.015 0 0zm-.741-.077c-.061-.062.097.096 0 0zm-2.314-.015c-.214.09.015.178 0 0zm-1.038.842c.472.174.218-.523.28-.842-.165.026-.398-.03-.42.168.325.048.322.45.14.674zm-6.88-.674c-.023-.44-.477.141 0 0zm-4.347-.065c.214-.09-.015-.178 0 0zm-1.522.114h.217v-.217h-.217v.217zm-1.942-.202c-.062-.062.096.096 0 0zm20.202.514c-.23-.24-.056-.473 0-.746-.17.023-.41-.026-.434.149.143-.097.021 1.097.434.597zm-4.565-.578c.477.14.024-.441 0 0zm-2.174-.168c-.084.033-.214.004-.217.147.084-.033.214-.004.217-.147zm-3.029.232c-.061-.062.097.096 0 0zm-.666 1.075c.61-.127.105-.79 0-1.144-.341.07-.432-.112-.652-.163.156.65-1.031-.213-1.305.326.058.505.831-.43.978.164-.511-.076-.46.411-.652.654.502.122.2-.564.815-.327.043-.23.358-.187.49-.327v.49c-.225.008-.359-.077-.49-.163-.153 1.216.88.914 1.468.817v-.163c-.258-.014-.622.078-.652-.164zm-8.247-1.075c-.061-.062.097.096 0 0zm28.03-.45c.09.215.177-.014 0 0zm-1.508.232c-.062-.061.097.097 0 0zm-.434 0c-.062-.061.096.097 0 0zm-6.522 0c-.062-.061.096.097 0 0zm-.232-.232c-.171.023-.412-.025-.435.147.17-.023.411.026.435-.147zm-4.334.232c-.061-.061.097.097 0 0zm-3.493-.232c-.17.023-.41-.025-.434.147.17-.023.411.026.434-.147zm-8.655.147c-.124.881.085-.598 0 0zm25.28-.055c-.09-.214-.177.015 0 0zm-7.06.027c0-.14-.19-.176-.217 0 .023.17.12.087.218 0zm-.433-.016c.213-.09-.016-.178 0 0zM40 35.652c-.085.033-.214.004-.217.147.084-.032.213-.004.217-.147zm-4.783 0c.17.753.17-.753 0 0zm-3.695.218h.217v-.218h-.217v.218zm-5.652-.413c-.478-.14-.024.441 0 0zm23.275-.007c-.062-.062.097.096 0 0zm-3.26 0c-.062-.062.096.096 0 0zm-4.146-.015v.428c.206.013.41.024.435-.143-.321.079-.207-.273-.435-.285zm-15.87.168c.478.14.023-.441 0 0zm-2.964-.09c-.311.432.432-.31 0 0zm-2.455-.063c-.062-.062.096.096 0 0zm27.826 0c-.062-.062.096.096 0 0zm-3.71-.015c.17.753.17-.753 0 0zm-3.899.014c-.062-.061.096.097 0 0zm-.884-.21c-.478-.14-.023.442 0 0zm-15.87.196c.17.753.17-.753 0 0zM56.522 35c.09.214.178-.015 0 0zm-10.42.231c-.062-.061.096.097 0 0zm-6.32-.212v.147c.58.107.58-.254 0-.147zm-14.349.632c.023-.408-.209-.51-.408-.652-.118.523.21.51.408.652zm31.192-.56c-.09-.214-.178.015 0 0zm-6.424.56c.11-.593-.353-.64-.853-.652-.025.514.693.317.853.652zM48.864 35c-.441.023.14.477 0 0zm-.806.015c-.062-.062.097.096 0 0zm-.434 0c-.062-.062.096.096 0 0zm-7.738.077c-.09-.214-.178.015 0 0zm-1.19.068c.36.122.408 1.54.87.616-.592.047-.078-.322-.146-.616-.206.013-.41.026-.434-.154-.169-.025-.258.034-.29.154zm-1.29-.145c-.062-.062.096.096 0 0zM37.104 35h-.147c.027.167.147.082.147 0zm-2.539.302c.208.443.777-.372.146-.297-.028.12-.146.148-.146.297zm-1.072 1.452c-.062-.062.096.096 0 0zm-1.304-.435c-.062-.062.097.097 0 0zm1.072-.302c.003-.143.133-.114.217-.147-.003.143-.133.114-.217.147zm-.652-.218c.024-.172.264-.124.434-.147-.023.173-.264.124-.434.147zm-1.087-.147h.217v.218h-.217v-.218zm.311-.652c.165.556-.5.257-.803.33-.295.234.252.804-.16 1.158.788.18 2.092-.17 2.25.66-.215-.214-.599-.217-.644.166.702-.226.342.64.965.496.288-.417.424-.858 1.124-.33-.144-.485-.144-.509 0-.992-.41-.02-.826-.032-.803-.496.336-.07.425.113.643.165V35c-.125.637-1.017.967-1.286.33-.671.14-.759-.32-1.286-.33zm-3.355.286c.185.008.201.183.435.143.007-.246-.112-.367-.29-.429.001.143-.117.17-.145.286zM26.685 35c.118.443-.167.528-.163.87h.652c-.077-.674.326-.47.652-.87h-1.141zm-2.99.125c0-.148-.19-.185-.217 0 .122-.015.17.215.218 0zm-.869-.32c.023.441.477-.14 0 0zm-1.087 0c-.477-.14-.023.441 0 0zm26.754.21c-.062-.062.096.096 0 0zm-5.884-.113c-.001-.141-.191-.176-.218 0 .024.169.121.086.218 0zm-.638.113c-.061-.062.097.096 0 0zm-.435 0c-.061-.062.097.096 0 0zm-.652 0c-.061-.062.097.096 0 0zm-3.71-.13c.214-.09-.015-.177 0 0zm-.114-.01c-.09-.215-.178.015 0 0zm-4.017.337c.259-.012.622.069.653-.143-.328.049-.51-.03-.49-.286-.19.023-.137.26-.163.429zm-5.216-.326c.214-.09-.016-.178 0 0zm-4.898-.012c-.09-.214-.178.016 0 0zm26.007-.091c.44-.023-.141-.478 0 0zm-24.153-.126c-.122.015-.17-.214-.218 0 .002.148.191.185.218 0zm-2.61.343v-.42c-.184-.078-.204.164-.216.42h.217zm31.523-.435c.17.753.17-.753 0 0zm-18.044 0c.17.753.17-.753 0 0zm-1.739-.204c-.275.047-.78-.205-.623.407.355.057.586-.05.623-.407zm-6.74.106c0-.141-.19-.176-.216 0 .022.17.12.086.217 0zm-1.211-.12c-.215.091.014.179 0 0zm-4.658.218c.17.753.17-.753 0 0zm-1.941.015c-.062-.062.096.096 0 0zm31.724-.232c-.17.023-.411-.026-.435.147.171-.023.411.025.435-.147zm-12.123 0c.09.52-.521.222-.144.647.233.07.485-.603.144-.647zm-4.834.167c.159.026.114.295.136.485h.27c.143-.41-.285-.922-.406-.485zm-9.782-.166c.09.214.178-.015 0 0zm-.42.013c-.062-.061.096.097 0 0zm31.087 0c-.062-.061.096.097 0 0zm-17.406-.106c-.002-.149-.191-.185-.218 0 .122-.015.17.214.218 0zm-9.91-.126c-.338.61.411.55 0 0zm-3.465.092c-.09-.214-.178.015 0 0zm29.042-.077c-.062-.062.096.097 0 0zm-2.392 0c-.062-.062.097.097 0 0zm-2.826 0c-.061-.062.097.097 0 0zm-22.84-.231c.09.214.177-.015 0 0zm-1.961.651c.06-.496-.572-.277-.63-.652-.107.547.265.596.63.652zm25.888-.637c-.062-.062.097.096 0 0zm-5.87 0c-.061-.062.097.096 0 0zm-3.299.637c.23-.545.85.379.894-.348-.21-.027-.507.03-.536-.173-.04-.136-.006-.343-.179-.348.193.444-.768.608-.179.87zm-18.816-.217c-.007-.222.068-.354.144-.484-.185-.01-.2-.207-.434-.162.02.3.095.54.29.646zm-2.9-.31c0-.148-.19-.185-.217 0 .122-.014.17.214.218 0zm23.914-.125c.248.005.375-.08.435-.217-.248-.005-.376.08-.435.217zm-1.381.64c.41-.056 1.94.146 1.528-.172-.932.053-.745-.513-1.359 0-.149-.55.441-.355.51-.685-.634.015-.484.192-1.02 0-.126.527.468.329.34.856zm-1.228-.64c.17.753.17-.753 0 0zm-.637-.203c.096.097-.062-.061 0 0zm-1.304 0c-.062-.061.095.097 0 0zm-3.711.42c-.07-.594-.548-.437-.866-.342-.05.615.526-.06.866.342zm-2.573.544c.67-.163.859.182 1.238.326.118-.256.49-.243.464-.652-.857.088-1.52-.03-1.702-.652h-.154c-.255.253.052.635.154.978zm-5.036-.831c-.023-.173-.264-.124-.434-.147v.147h.434zm-.434.001v-.147c-.341-.019-.234.18 0 .147zm-.484.069c.14-.477-.441-.023 0 0zm-1.473 0c.17.753.17-.753 0 0zm16.102-.203c-.062-.061.096.097 0 0zm-5.885.203c.248.01.375-.159.435-.426-.234-.06-.25.201-.435.213v.213zm-16.506-.203c-.062-.061.096.097 0 0zm29.782-.217c.096.097-.062-.062 0 0zm-8.696 0c.097.097-.061-.062 0 0zm-.434 0c-.062-.062.096.097 0 0zm-4.363-.015h.42c.077-.185-.164-.205-.42-.217v.217zm-2.826 0h.147c.024-.126-.032-.193-.147-.217v.217zm-7.391-.098c-.001-.14-.191-.176-.218 0 .023.17.12.086.218 0zm-3.479-.105c-.252.06-.898-.128-.868.11.26.176.71.082.868-.11zm23.696.078c-.122.015-.17-.214-.217 0 0 .148.19.185.217 0zm-.87-.306c-.313-.027-.457.117-.431.431a.728.728 0 0 0 .431-.431zm-1.74.192c-.266.015-.474-.044-.609-.196-.244.544.657.54.608.196zm-10.868-.035c.158.004.127.168.163.274h.489v-.274c-.1-.04-.627-.34-.652 0zm-5.218-.16c-.5.06.023.947 0 0zm6.305.434c.172-.023.124-.264.146-.435h-.146v.435zm3.043-.532c-.001-.142-.19-.177-.217 0 .023.168.12.085.217 0zm13.493-.105c-.061-.062.097.096 0 0zm-8.234-.227c-.243.538.658.534.609.193-.273.024-.32-.237-.609-.193zm-5.476-.005c-.533.13-.419.445-1.046.158-.175.529.242.52.697.475.09-.234.258-.399.349-.633zm-5.218.43c.127.022.194-.032.218-.144-.118-.035-.074-.285-.218-.286v.43zm0-.015v-.415c-.124.056-.42.536 0 .415zm-3.75.237h.486c.06-.496-.59-.277-.649-.652v.489c.138-.03.153.063.162.163zm-1.452-.42c-.062-.062.096.096 0 0zm-1.305 0c-.061-.062.097.096 0 0zm19.116-.284v.325c.154-.001.183.13.309.161-.191-.524.5-.124.31-.648-.293-.036-.342.183-.619.162zm-1.304.356c.399.557.156-.907 0 0zm-2.377-.29c.097.097-.061-.061 0 0zm-5.34-.232c-.282.103.012.802-.327.846-.324-.003-.207-.462-.652-.338-.026.198.028.48-.163.507v-.507h-.489v.338c.127.037.19.141.163.338.946-.185.498.286.978.338.235-.038.057-.505.326-.507.362-.093.232.323.49.338-.098-.522-.062-.973-.327-1.353zm-2.773.435c.003-.24.453-.081.49-.29-.285.011-.507-.032-.652-.145.025.17-.028.412.162.435zm-3.941 0h.26c.204-.487-.443-.582-.392-.198.08.011.156.03.132.198zm-6.294 0c.002-.19.254-.13.29-.286-.185-.008-.2-.183-.435-.143.023.168-.025.406.145.43zm-4.493-.217c.17.753.17-.753 0 0zm32.826-.217c.091.214.178-.015 0 0zm-12.376.014c-.062-.062.096.096 0 0zm-3.696 0c-.062-.062.097.096 0 0zM28.623 35c.178.062.297.183.29.429-.234.04-.25-.135-.435-.143.028-.116.146-.143.145-.286zm.399-2.609c-.555.26-.995.635-1.468.976.631.102.671.135 1.141-.162-.31.65 1.024.476.327.976.06-.277-.127-.307-.327-.326-.225.66.354.515.327.977h-.653c-.104-.355.462-.518-.163-.488-.162.345-.065 1.295-.815 1.464.68.2 2.029-.151 2.609-.163-.104-.375-.159-1.237.326-1.464.022.401.025.784-.163.976.58-.253.098.553.49.488-.087-.921-.087-1.031 0-1.952-.178.04-.111.323-.327.325.143-.335-.423-.73-.489-.325.155.272-.236 1.386-.652 1.627.021-.952.48-1.497 0-2.115-.573.142-.17-.422 0-.488-.031-.132-.164-.163-.163-.326zm-2.138.667c-.336-.278-.215.015-.677 0 .194.524-.265.405-.337.667.198.026.48-.03.506.166h-.506v.667c.678.034.756-.043.337-.334.377-.386.66.057 1.184 0-.065-.815-.462-1.047-.17-1.833h-.168c-.131.148-.182.376-.17.667zm-4.913-.652c-.061-.062.097.096 0 0zm26.74 0c.096.096-.062-.062 0 0zm-1.305 0c.097.096-.062-.062 0 0zm-6.536-.232c-.085.033-.215.004-.218.147.085-.033.215-.004.218-.147zm-3.03.232c.097.096-.061-.062 0 0zm-2.825 0c.096.096-.062-.062 0 0zm-.87 0c.097.096-.062-.062 0 0zm-1.102-.232c-.17.023-.41-.025-.434.147.17-.023.411.026.434-.147zm-5.217.424c-.102-.105-.492-.77-.652-.189.409-.25.395.882.652.19zm-1.739-.424c-.084.033-.214.004-.217.147.084-.033.214-.004.217-.147zm-.87 0c.091.215.178-.014 0 0zm-.854.232c.096.096-.062-.062 0 0zm-3.928-.106c-.001-.15-.19-.186-.218 0 .122-.015.17.213.218 0zm-1.29.106c.097.096-.061-.062 0 0zm-4.348 0c.097.096-.061-.062 0 0zm32.812-.45c.027.168.147.082.147 0h-.147zm-2.952 0c-.214.091.015.178 0 0zm-.294.233c-.062-.062.096.096 0 0zm-13.259-.232c-.744.019-.486.896.17.868.189-.56-.601-.515-.17-.868zm-1.524.232c-.062-.062.097.096 0 0zm15.203-.13c.214-.09-.015-.177 0 0zm-3.479-.32c-.084.033-.214.004-.217.147.084-.032.215-.004.217-.147zm-3.028.232c-.062-.061.096.097 0 0zm-7.841.11c-.002-.147-.191-.184-.218 0 .122-.014.17.215.218 0zm-5.652.087c.233.04.249-.134.434-.142.023-.625-.435-.065-.434.142zm1.97-.429c.046.276-.206.78.407.623.056-.355-.05-.585-.408-.623zm-1.086.015c-.062-.062.097.096 0 0zm-5.644-.015c-.141.477.44.023 0 0zm28.89-.217c-.084.033-.214.003-.217.147.084-.033.214-.004.217-.147zm-1.865 0c-.214.09.015.178 0 0zm-18.807.87c-.092-.32.283-1.016-.415-.843.114.3.106.7.415.842zm-1.067-.653c.171.753.171-.753 0 0zm-7.07-.125c-.091-.214-.179.015 0 0zm-.974.125c.17.753.17-.753 0 0zm28.276.667c-.062-.062.097.096 0 0zm.454-1.102c-.183.709-1.053.693-1.12 1.522h.96c-.006-.289.12-.438.32-.507.027-.197-.034-.301-.16-.338 0 .094-.13.192-.16 0h.16c-.153-.315.48-.565 0-.677zm-.903.104c.214-.091-.015-.178 0 0zm-.653.114c.171.753.171-.753 0 0zm-22.61-.021c-.288.043-.336-.22-.609-.195-.243.542.657.538.609.195zm27.408-.182c-.062-.062.096.097 0 0zm-8.928-.015c.17.753.17-.753 0 0zm-1.507.015c-.062-.062.096.097 0 0zm-.45-.232c-.084.033-.214.004-.217.147.084-.033.214-.004.217-.147zm-1.304.337c-.002-.141-.19-.176-.217 0 .023.169.12.086.217 0zm8.044-.337c-.085.033-.215.004-.218.147.084-.033.215-.004.218-.147zm-.723 0h-.147c.028.167.148.082.147 0zm-7.958.015c-.062-.062.096.096 0 0zm-3.71-.015c-.171.023-.412-.026-.436.147.171-.023.411.025.435-.147zm-.87.147c-.024-.173-.265-.124-.435-.147.024.172.264.124.435.147zm-.954-.147c-.14.031-.172.163-.345.163-.074.45.644.153.692.49.468-.148-.146-.601-.347-.653zm-1.003.651c.54.036.557-.936.164-.568h-.164v.568zm-.652-.532c-.001-.14-.19-.176-.217 0 .023.17.12.086.217 0zm-.87-.119c-.084.033-.214.004-.217.147.084-.033.214-.004.217-.147zm-.68.607c.143-.382-.286-.858-.407-.452.324-.06-.075.685.406.452zm-1.71-.606c.09.214.177-.016 0 0zm-3.914 0c.09.214.178-.016 0 0zm26.537.014c-.062-.062.096.096 0 0zm-1.972-.232c-.084.032-.214.003-.217.147.084-.033.214-.004.217-.147zm-2.174.168c.478.14.024-.441 0 0zm-.331-.077c-.09-.214-.178.015 0 0zm-6.625.126c.17.753.17-.753 0 0zm-.42.015c-.062-.062.096.096 0 0zm-12.624-.064c-.023-.441-.477.14 0 0zm-1.724.064c-.062-.062.097.096 0 0zM45 30.675c.023.44.477-.141 0 0zm-10.87.1c-.502.022-.792-.377-.87.157.205.024.495-.028.523.155.154-.069.31-.137.347-.311zm-1.724.11c-.062-.062.096.096 0 0zm-3.493 1.289c-.158-.58-.076-1.093 0-1.522h-.652c.271.452-.044 1.511.652 1.522zm-4.832-1.304c.141-.478-.44-.024 0 0zm23.093 0h.435c-.014-.223.019-.491-.29-.425.006.195-.068.31-.145.425zm-2.07-.126c-.092-.214-.179.015 0 0zm-8.365-.091c.09.214.178-.015 0 0zm12.609-.217c.09.213.178-.016 0 0zm-1.087.107c.12-.02.133.043.142.11h.282c.067-.233-.202-.208-.424-.218v.108zm-1.505-.108c-.124.943.508.068 0 0zm-.669.125c-.001-.148-.19-.185-.217 0 .121-.015.169.214.217 0zm-9.462-.033c-.09-.214-.178.015 0 0zm-1.19.125c.17.753.17-.753 0 0zm-3.029.232c.096.097-.062-.061 0 0zm.733-.381c-.804.041-1.41-.423-1.322.62h.165c.398-.402.381.658-.165.619v-.62c-.522.42-.2 1.028-.165 1.704h.165v-.774c.262-.013.63.074.661-.155-.16-.005-.128-.19-.165-.31h.826c-.045-.32-.731-.037-.66-.465.165 0 .196-.125.33-.154.19.05.778.479.33.619.075.478.875.372.165.774.412.34.756-.322.826-.774-.234.013-.467.026-.495-.155.031-.125.165-.154.165-.31-.195-.024-.469.027-.496-.154-.193-.026-.14-.283-.165-.465zm-4.009.3c.641.137.9.075 1.305-.301-.64-.138-.9-.076-1.305.3zm-1.354.284c.17-1.229-.45-.421 0 0zm3.326-.637c-.062-.062.096.096 0 0zm-.645-.015c.441-.023-.14-.478 0 0zm-4.587-.218c-.244.025-.602-.052-.653.148.244-.026.602.052.653-.148zm29.145.015c-.062-.062.096.096 0 0zm-4.254-.123c.376-.377-.377.376 0 0zm-.963.123c-.063-.062.095.096 0 0zm-.668.073c-.063-.908-.455.556 0 0zM35 30.119c-.001-.14-.19-.176-.217 0 .023.17.12.086.217 0zm-8.696-.118c.062.499.947-.024 0 0zm22.03.434c-.041-.234.136-.25.144-.435h-.434c-.007.248.108.375.29.435zM46.521 30c.17.753.17-.753 0 0zm-9.565 0c-.085.033-.215.004-.218.147.084-.032.214-.004.218-.147zm-8.261.217h.433c.018-.372-.143-.485-.433-.415v.415zm19.929-.43c-.125-.026-.139.058-.147.148.125.027.139-.058.147-.147zm-1.466.01c-.51-.118.118.51 0 0zm-9.114.275c-.029.363.377.352.505.58.367-.303-.084-.413 0-.87h-.168c.061.247-.132.274-.337.29zm-1.74-.29c-.085.033-.215.004-.218.148.085-.033.215-.004.217-.147zm-5.87.218c.17.753.17-.753 0 0zM30 29.783c-.084.032-.214.003-.217.147.084-.033.214-.004.217-.147zm-4.13.221c.117.041.144.214.29.213.027-.172.145-.212.144-.425-.205-.018-.41-.035-.434.212zm24.145-.207c-.062-.062.096.097 0 0zm-11.607-.136c-.028-.167-.148-.081-.147 0h.147zm-11.886 1.516c.24.265.721.069.928-.16-.238-.087-.01-.169.154-.162.053-.5-.358-.77 0-1.128-.25.045-.266-.153-.463-.162.013.229.025.457-.155.484.025-.188-.034-.287-.155-.322-.03.648-.02.66.464.483.013.229.025.457-.154.484-.364-.393-.346.18-.62.322v.16zm.147-1.607c-.125-.027-.139.058-.147.148.125.027.139-.058.147-.148zm22.027-.005c.143-.003.114-.133.147-.217h-.147v.217zm-15.653.204c-.48.234-.113-.614-.594-.38-.277.634.534.8.594.38zm-2.39-.16c.106.257.414.347.775.391.07-.116.137-.233.311-.26-.195-.272-.456-.15-1.087-.131zm-.115.048c-.09-.214-.178.015 0 0zm-1.408-.287c.023.441.478-.14 0 0zm-2.608.146c.477.14.023-.44 0 0zm24.348-.168c.17.753.17-.753 0 0zM47.883 30h.447c.008-.097.022-.188.148-.159v-.319c-.422-.485-1.321.162-.595.478zm-5.477-.637c.097.096-.062-.062 0 0zm-12.333-.015c-.885.28.592.3 0 0zm-.84.092c-.09-.214-.177.015 0 0zm-5.088-.077c.097.096-.061-.062 0 0zm28.044-.218c.096.097-.062-.062 0 0zm-1.972.11c-.001-.148-.19-.184-.217 0 .122-.014.17.215.217 0zm-.855-.11c.097.097-.061-.062 0 0zm-.666.202c.947.023.06-.499 0 0zm-1.143-.19c.068.352-.111.446-.162.673.144.13.365.181.646.168-.787-.333.188-1.016.646-.504.13-.64-.763-.214-1.13-.337zm-1.466.099c-.001-.149-.19-.185-.217 0 .121-.015.169.214.217 0zm-6.74-.034c-.122.015-.169-.214-.217 0 .002.149.19.185.218 0zm-.983 0c-.09-.214-.178.015 0 0zm-25.306-.077c-.061-.061.097.097 0 0zm39.55-.015c.17.754.17-.753 0 0zm-5.434-.216c.09.214.178-.015 0 0zm-13.478.651c-.02-.415-.238-.632-.653-.652.02.415.238.632.653.652zm-2.609-.652c-.084.033-.214.004-.217.147.084-.033.214-.004.217-.147zm-3.696.092c-.121.015-.168-.214-.217 0 .002.148.19.185.217 0zm11.263-.31c.053.347-.032.54-.312.518.061.414-.712-.095-.468.518h.468c-.001-.095.126-.196.156 0 .749.297.28-.782.156-1.035zm-6.03.233c.096.096-.062-.062 0 0zm17.39-.218c-.061-.061.097.097 0 0zm-3.13.42c.005-.153.177-.122.29-.157.007-.615-.742-.044-.29.157zm-9.041-.434c-.125.943.508.067 0 0zm-5.002.014c-.062-.061.096.097 0 0zm-3.276.079c-.75-.344-.38.406 0 0zm-3.043-.093c.17.753.17-.753 0 0zm26.97.014c.097.097-.06-.061 0 0zm-.434 0c-.062-.061.096.097 0 0zm-4.362-.21c.023.442.477-.14 0 0zm-1.957-.022c-.17.023-.411-.025-.435.148.17-.023.412.025.435-.148zm-8.478.218c.17.753.17-.753 0 0zm-1.046-.07c.084-.599-.125.88 0 0zm1.278-.133c-.062-.062.097.096 0 0zm-10.52-.136c-.028-.167-.147-.082-.147 0h.147zm-.364.02c-.72-.392-.42.36 0 0zm24.13-.116c.17.753.17-.753 0 0zm-4 .435c.167-.217.078-.492-.13-.653.022.245-.046.602.13.653zm-.55-.42c.096.096-.062-.062 0 0zm-14.74 1.113c.48-.234.113.614.594.38-.06.42-.871.254-.594-.38zm.594-.476c.415.02.633.237.653.652-.415-.02-.633-.237-.653-.652zm-.42.015c-.061-.062.097.096 0 0zm.218-.218c.096.097-.062-.061 0 0zm-1.966-.188c.209.407.844-.369.957 0-.096.33.197 1.044-.16 1.113.18.716 1.577.158 2.073.158-.131-.449.225-.411.16-.794-.698-.364-1.126-.997-2.233-.953-.066.358-.874-.024-.797.476zM27.628 30c.896-.372.798-.743.85-1.788-.094-.303-1.323-.167-.68.163 0-.09.138-.184.17 0h-.17c.628.572-.336.907-.17 1.625zm24.775-1.087c-.253-.432.57-.722 0-.87-.112.106-.454.825 0 .87zm-22.29.217c.2-.08.695-.51.49-.76-.09.362-.492-.169-.163-.303-.391.092-1.188-.191-1.31.151.758.239 1.063-.05.983.912zm-3.59-1.087c-.024.948.498.061 0 0zM55 27.827c.09.214.178-.015 0 0zm-6.304.289c.145 0 .172.117.29.145 0-.146.117-.173.144-.29-.145 0-.172-.118-.29-.145.001.145-.117.172-.144.29zm-15.638-.058c-.062-.062.096.097 0 0zm-6.433-.14c-.09-.214-.178.015 0 0zm28.26-.217c-.09-.215-.177.015 0 0zm-4.015-.092c-.085.033-.215.004-.218.147.085-.033.214-.004.218-.147zm-17.812.45c-.062-.063.096.096 0 0zm-.074.046c.425-.147.7.605 1.107.3-.397.072.381-.686-.159-.749-.09.72-.681-.498-1.106.15.124.033.184.125.158.3zm-4.723-.496c-.084.033-.214.004-.218.147.085-.033.215-.004.218-.147zm25.45.014c-.062-.061.096.097 0 0zm-4.363.419c.284.012.507-.036.652-.163.008-.28-.126-.417-.325-.488.186.512-.257.396-.327.65zm-.793-.634c-.108-.106-.182 1.219.358 1.056-.57-.268.378-1.207-.358-1.056zm-.729.2c.17.754.17-.752 0 0zm-1.724.015c-.062-.061.097.097 0 0zm-5.232-.13c-.37-.362-.199.39 0 0zm-8.913.194c.217.205.606.208.652-.157-.217-.204-.607-.207-.652.157zm-.218-.278c-.512-.082-.746.129-.87.456.342-.004.428.262.87.152-.5-.253-.401-.282 0-.608zm-1.212-.018c-.215.091.015.179 0 0zm-1.397 0c-.084.034-.214.004-.217.148.084-.033.214-.004.217-.148zm-4.767.232c-.062-.061.096.097 0 0zm16.53-.014c.44-.023-.142-.478 0 0zm-12.85-.218c-.084.033-.214.004-.217.147.084-.032.215-.003.217-.147zm28.276.015c-.062-.062.096.097 0 0zm-6.227-.232c-.214.09.015.178 0 0zm-1.164.232c-.062-.062.096.097 0 0zm-3.688-.232c-.141.477.44.023 0 0zm-13.41 0c-.213.09.016.178 0 0zm19.054.015c-.062-.062.097.096 0 0zm-4.579-.13c.214-.09-.015-.177 0 0zm.217.016c-.17-.023-.209-.119-.418-.118-.115.242.399.282.418.118zm-.56-.118c-.215.09.015.177 0 0zm-5.325.015c-.51-.119.118.509 0 0zm-10.188.42c1.02-.022-.155-.968 0 0zm-3.043-.203c-.062-.062.097.096 0 0zm-7.189-.015c.17.753.17-.753 0 0zm-1.507.015c-.06-.062.097.096 0 0zm33.03-.45c.09.215.177-.014 0 0zm-6.523.435c.023-.947-.5-.061 0 0zm-4.564-.114c.213-.09-.016-.178 0 0zm-7.175.215c.217.222.492.105.652-.17-.241-.198-.41-.198-.652 0v.17zm-.652-.134c-.437-1.017-1.218.248 0 0zm-2.391-.401c-.947-.023-.06.499 0 0zm25.652.216c.17.754.17-.752 0 0zm-4.462-.125c-.09-.214-.178.015 0 0zm-1.75-.092c-.215.091.015.178 0 0zm-2.701.433c.408.024.51-.22.652-.431-.408-.025-.51.22-.652.431zm-5.87.429c.35.11.697-1 .15-.847.048.393-.024.65-.15.847zm-8.327-.427c.004-.139.165-.11.27-.143.134-.687-.767.04-.27.143zm-4.048-.435c-.123.944.51.068 0 0zm-1.105.01c-.01.002.01.13 0 .14-.749.762.757-.259 0-.14zm-10.2.005c-.062-.062.096.097 0 0zm35 0c-.062-.062.096.096 0 0zm-6.734.203h.147c.107-.58-.254-.58-.147 0zm-11.45-.435c-.215.09.015.178 0 0zm-2.483.652v-.645c-.235-.046-.25.152-.435.16v.323c.168-.026.258.036.29.162h.145zm-13.681-.42c-.062-.062.096.096 0 0zm38.913-.217c-.062-.062.096.096 0 0zm-5.87 0c-.062-.062.096.096 0 0zm-.409-.086c.085-.598-.124.881 0 0zm-.214.506c-.05-.225.165-.24.174-.418-.346-.092-.743-.479-.87 0 .14.12.476.083.523.278-.203-.022-.31.031-.35.14h.523zm-1.783-.527c-.002-.149-.19-.185-.217 0 .122-.015.169.214.217 0zm-1.724.107c-.062-.062.096.096 0 0zm-.435 0c-.062-.062.096.096 0 0zm-1.304 0c-.062-.062.096.096 0 0zm-2.827 0c-.061-.062.097.096 0 0zm-8.274-.13c.213-.09-.016-.177 0 0zm-1.306-.08c-.477-.14-.023.44 0 0zm16.832-.24c-.215.09.015.178 0 0zm-1.18.94c.542-.192.413.442.87.356-.29-.333-.161-1.172-.435-1.07.229.698-.376.369-.434.713zm-19.782-.94v.42c.185.077.205-.164.217-.42h-.217zm-1.087.217c.17.753.17-.753 0 0zm-10.202.015c-.062-.062.096.096 0 0zm32.81-.015c.171.753.171-.753 0 0zm-9.782 0c.17.753.17-.753 0 0zm-11.522-.049c.478.141.023-.44 0 0zm-.854-.153c-.062-.062.096.096 0 0zm21.747-.015c.44-.023-.141-.477 0 0zm-3.27.015c-.06-.062.097.096 0 0zm-4.13 0c-.061-.062.097.096 0 0zm-9.534.202c.226-.032.232-.432 0-.434-.35.298-.35.136 0 .434zm-1.202-.434h-.148c.028.167.148.082.148 0zm-1.452.085c-.665-.328-.488.42 0 0zm-2.594.147c-.062-.062.096.096 0 0zm-.21-.232c-.14.477.442.023 0 0zm-1.452 0c-.214.09.015.178 0 0zm-3.353 0c.09.214.178-.015 0 0zm-9.116.232c-.061-.062.097.096 0 0zm35.855-.324c-.001-.149-.19-.186-.217 0 .122-.015.169.214.217 0zm-15.202.106c-.062-.061.096.097 0 0zm-1.216-.14c-.09-.214-.178.015 0 0zm-7.712.125c.17.754.17-.752 0 0zm-2.506-.125c-.09-.214-.178.015 0 0zm9.028.217c-.485-.914-1.187.546 0 0zM30 25.435c-.084.033-.215.004-.217.147.084-.033.214-.004.217-.147zm-3.014 0c-.157.633.347.373.623.42-.024-.389-.528-.128-.623-.42zm-9.812.343c-.001-.149-.19-.186-.217 0 .121-.015.169.214.217 0zm31.6-.265c-.311.432.432-.31 0 0zm-2.904-.078c-.085.033-.215.004-.218.147.085-.033.215-.004.218-.147zm-5.218.293c.11 0 .13.115.218.142-.01-.223.015-.491-.218-.425v.283zm-10.125-.293c-.215.09.015.178 0 0zm-1.831.286c.185.007.2.183.434.143.008-.246-.111-.367-.29-.43 0 .144-.117.17-.144.287zm-.218-.069c.17.753.17-.753 0 0zm-1.976.218c.07-.29-.041-.452-.406-.434-.058.233.192.249.203.434h.203zm30.02-.435c.17.753.17-.753 0 0zm-1.507.015c.096.096-.062-.062 0 0zm-15 0c.096.096-.062-.062 0 0zm-7.778-.213c-.568-.127-.861.423-1.24 0-.314.641-.288.7-.155 1.376-.405.2-.666-.53-.62.172v.172c.296-.322.39-.02.775 0 .156-.229.147-.64.465-.688.575-.109.555.472.93.172-.172-.155-.107-.385 0-.688-.498-.106-.213.619-.62.172 0 .095-.126.195-.155 0-.95.555-.388-.927 0 0h.155c-.136-.552.402-.356.465-.688zm-14.613.213c.096.096-.062-.062 0 0zm38.043-.218c.097.097-.062-.062 0 0zM48.696 25c-.171.023-.412-.025-.435.147.17-.023.412.026.435-.147zm-14.04.276c.546-.255-.913.427 0 0zm-4.199-.059c.441-.023-.14-.477 0 0zm-4.573-.202c.097.096-.061-.062 0 0zm-3.695 0c.096.096-.062-.062 0 0zm11.072.613c.255-.097.851.205.87-.169-.624.221-.459-.48-.725-.676-.186.398.02.314-.145.845zm-6.725-.83c.097.096-.061-.063 0 0zm-13.043 0c.096.096-.062-.063 0 0zm43.246-.233c-.084.033-.214.004-.217.147.084-.033.214-.004.217-.147zm-2.174.286c.186.008.201.183.435.143-.022-.168.025-.406-.145-.429-.001.19-.254.13-.29.286zm-9.985-.054c-.062-.062.097.097 0 0zm-10.232-.014c.17.753.17-.754 0 0zm-1.74-.195c-.477-.141-.022.44 0 0zm-1.086.195c.17.753.17-.754 0 0zm-1.74-.218c-.084.033-.214.004-.217.147.085-.033.215-.004.218-.147zm-4.55.232c-.061-.062.097.097 0 0zm-.358-.232c-.214.09.016.178 0 0zm-1.396 0c-.084.033-.214.004-.217.147.084-.033.214-.004.217-.147zm10.652-.217c-.17.023-.411-.025-.434.147.17-.023.41.025.434-.147zm-1.374.005c-.125-.027-.139.058-.147.148.125.026.139-.058.147-.148zm-1.886-.005c-.908.066-.134.944 0 0zm-2.16.232c-.061-.062.097.096 0 0zm-3.927-.232v.147c.167-.028.082-.148 0-.147zm-.855.232c.096.096-.062-.062 0 0zm9.045-.444c-.125-.027-.139.057-.147.147.126.027.139-.057.147-.147zm-1.451.331c-.002-.141-.19-.176-.218 0 .023.17.12.086.218 0zm-1.29-.105c-.061-.061.097.097 0 0zm-3.542-.014c-.441.023.14.477 0 0zm-1.804.092c-.09-.214-.178.015 0 0zm33.157-.092c.171.753.171-.753 0 0zm-21.059-.218c-.16.873.447.195 0 0zm-6.23.218c.39-.198-.362-.37 0 0zm-5.105-.015c-.167-.011-.181-.25-.392-.194-.204.478.444.57.392.194zm3.279-.188c-.062-.062.096.097 0 0zm13.695-.217c-.061-.062.097.096 0 0zm-9.362-.232c.003.143.133.114.217.147-.003-.143-.133-.114-.217-.147zm-.652.022c-.478-.14-.023.441 0 0zm-3.183.274c-.31.432.432-.312 0 0zm-.948-.08c.25.007.372-.083.435-.216-.25-.006-.372.083-.435.217zm-13.898.016c-.061-.062.096.096 0 0zm27.377-.232c.17.753.17-.753 0 0zm-5-.019c-.07-.388-.803-.07-1.141-.174-.252.731.844.028.814.521-.34.378-.465-.086-.978 0 .139.374.402.614.978.521.141-.14.097-.476.327-.52v-.348zm-2.406.236c.077-.185-.165-.205-.42-.217.092.096.184.194.42.217zm-1.942-.114c.215-.09-.015-.178 0 0zm-3.899-.306c-.061-.062.097.097 0 0zm-3.342.42c.034-.198.234-.234.284-.415-.293-.122-.639.359-.284.415zm-11.658-.42c-.061-.062.097.097 0 0zm30.638.054c.185.008.2.183.435.143-.023-.169.024-.406-.145-.43-.002.19-.254.132-.29.287zm-7.609-.285c.09.214.178-.015 0 0zm-5.217.285c.208.008.226.183.489.143-.007-.197.077-.314.163-.43-.304.02-.545.095-.652.287zm-3.246-.054c-.062-.062.096.096 0 0zm-.885-.232h-.868c-.032.433.535.493.145.87.409-.333.475-.687.723-.87zm-1.072.232c-.062-.062.097.096 0 0zm-11.304 0c-.062-.062.096.096 0 0zm-.45-.232c-.084.033-.214.004-.217.147.084-.033.214-.004.217-.147zm21.957-.07v-.146c-.34-.019-.235.18 0 .147zm-3.533.145c.052.365-.026.604-.163.787h.489c.03-.127.163-.156.163-.315-.127-.035-.321-.004-.326-.157.126.035.321.004.326.157.609-.168.465.392.977.315.07-.3.351-.396.326-.787-.279-.216-.641-.51-.651.157.198.018.385.047.325.315-.182-.033-.253-.175-.325-.315-.28.007-.422-.117-.489-.315-.43-.41-.128.255-.652.158zm.055.028c.214-.09-.015-.178 0 0zm-.653-.089c.293-.025.344.243.652.198v-.198c-.1-.057-.628-.491-.652 0zm-1.647-.232c-.214.091.015.179 0 0zm-1.164.233c-.062-.062.097.096 0 0zm-4.13 0c-.062-.062.096.096 0 0zm-.45-.233c-.084.034-.214.004-.217.148.084-.033.214-.004.217-.148zm-11.087.03c-1.229-.17-.42.45 0 0zm30.667-.015c-.062-.061.097.097 0 0zm-9.356-.015c.02.493-.14 1.178.428 1.078-.05-.46-.082-.937-.428-1.078zm-8.253.015c-.061-.061.097.097 0 0zm9.768.188c.185.077.206-.163.218-.42-.097.093-.195.185-.218.42zm-2.764-.42c-.062.211-.123-.014-.28 0v.435c.124-.043.71-.29.28-.434zm-3.323.217c.947.023.06-.5 0 0zm12.841-.202c-.062-.062.097.096 0 0zm-6.536-.13c.215-.09-.015-.177 0 0zm-8.03.13c-.061-.062.097.096 0 0zm-.651 0c-.062-.062.096.096 0 0zm5.87-.218c-.063-.061.096.097 0 0zm6.289-.232c-.085.033-.215.004-.218.147.084-.032.215-.003.218-.147zm-2.825 1.74c.44-.388-.36-1.17.426-1.107.068-.496-.357-.446-.568-.633.396.514-.452 1.53.142 1.74zm-2.393-1.74c.17.753.17-.753 0 0zm1.522-.194c.023.44.478-.142 0 0zm5.87-.24c-.085.032-.215.004-.218.147.085-.033.214-.004.218-.147zm-5.218 0c.09.214.179-.015 0 0zm-.549.092c-.09-.215-.178.014 0 0zm-2.929.027c-.001-.141-.19-.176-.217 0 .022.169.12.086.217 0zm21.102-.105c-.062-.061.096.097 0 0zm-18.493-.201c-1.229-.17-.422.45 0 0zM30 21.957c.223-.01.49.014.425-.218h-.283c0 .11-.115.13-.142.218zm7.609-.205c-.106-.112-.825-.456-.87 0 .492-.161.451.274.87.195v-.195zm-6.937-.008c-.121.29.359.632.415.281-.14-.09-.143-.323-.415-.28zm2.371-.005c.185-.027.149-.216 0-.217v.217zm23.276-.203c-.062-.061.097.097 0 0zm-9.362-.23c.09.213.178-.016 0 0zm-33.464.23c-.062-.061.096.097 0 0zm33.398-.302c.027-.125-.057-.139-.147-.147-.027.125.057.139.147.147zm-1.674-.147c-.084.033-.214.004-.217.147.084-.033.214-.004.217-.147zm-11.521.022c.022.442.477-.14 0 0zm-2.941 2.025c.016.218-.24.111 0 0 .046-.71.724.034 0 0zm1.705-1.349c.114-.125.4-.828-.16-.677-.008.834-.382.389-.64.847-.05.529.462-.43.48.169.206.88-.585.115-.801.17-.488.12-.709.772-1.122.507v.677c1.402-.248 1.816-.512 3.044-.846-.372-.115-.552-.432-.8-.677.253-.014.61.081.64-.17h-.64zm-.706-.466c.097.096-.062-.062 0 0zm-19.797.077c-.123.015-.17-.214-.218 0 .001.149.19.185.218 0zm34.668-.217c-.09-.214-.178.015 0 0zm-13.631.343c.16-.873-.448-.195 0 0zm-3.631-.42c-.063-.062.096.096 0 0zm-.87 0c-.062-.062.096.096 0 0zm27.826 0c.096.096-.062-.062 0 0zm-1.102.202c.304-.028.546-.138.653-.42-.372-.058-.613.05-.653.42zm-8.02-.434c-.14.477.44.023 0 0zm-13.501.2c-.068-.508-.944.124 0 0zm-2.356-.043c-.08.436-.222-.23-.427-.15-.21.673.417.461.285 1.053.455.212.36-.9.142-.903zm-1.32.495h.621c.044-.372-.037-.613-.311-.652-.002.324-.424.207-.31.652zm-4.788-.42c.097.096-.061-.062 0 0zm21.942-.282c-.023-.44-.478.141 0 0zm-15.343-.168c-.214.09.015.178 0 0zm20.792.015c-.061-.062.097.096 0 0zm-6.739 0c-.061-.062.097.096 0 0zm-14.372-.015c.065-.231-.203-.207-.425-.217.104.101.257.165.425.217zm-3.236.015c-.062-.062.096.096 0 0zm-1.74 0c-.061-.062.097.096 0 0zm-9.782 0c-.062-.062.097.096 0 0zm34.565-.217c.096.096-.061-.062 0 0zm2.852-.086c.085-.597-.124.881 0 0zm-1.548.086c-.061-.062.097.096 0 0zm-20.019-.22c-.547-.083-.53.264-.858 0-.048.228.163.242.172.422.328-.059.739-.05.686-.421zm-6.068.22c-.061-.062.097.096 0 0zm-4.145-.233c-.084.033-.214.004-.217.148.084-.034.214-.005.217-.148zm10.45.015c.096.096-.062-.062 0 0zM30.889 20c-.07.29.043.452.415.433V20h-.415zm-3.715.639c.33.118.613-.589.298-.639-.078.236-.22.403-.298.639zm3.914-.536c.214-.09-.016-.178 0 0zm-6.444-.024c-.311.432.432-.312 0 0zm-3.325-.064c-.062-.062.096.096 0 0zm8.913-.218c-.061-.061.097.097 0 0zm-3.414.064c-.312.432.432-.31 0 0zm-.716-.064c-.062-.061.096.097 0 0zm30.652-.217c-.062-.062.097.096 0 0zm-27.099-.232c-.337.61.412.549 0 0zm-.525.217c.17.753.17-.753 0 0zm26.32-.202c-.062-.062.096.096 0 0zm-9.783 0c-.062-.062.097.096 0 0zm-3.696 0c-.061-.062.097.096 0 0zm-11.304 0c-.062-.062.096.096 0 0zm-2.016.42c.166-.318-.17-.971-.39-.469.406.046-.289.423.39.469zm-2.13-.435c.171.753.171-.753 0 0zm-.42.015c-.06-.062.097.096 0 0zm23.078-.233c-.003.19-.163.151-.265.194-.023.595.77-.086.265-.194zm-.163.092c-.09-.214-.178.015 0 0zm-4.001-.077c-.062-.061.096.097 0 0zm-17.174 0c-.062-.061.096.097 0 0zm-1.986.42c.057-.372-.048-.612-.406-.652-.056.372.05.613.406.652zm-1.072-.87c-.085.033-.215.005-.218.148.085-.033.215-.004.218-.147zm7.174 0c.17.754.17-.752 0 0zm-.42.015c-.062-.061.096.097 0 0zm-9.363-.232c-.084.033-.214.004-.217.147.084-.033.214-.003.217-.147zm-7.811.015c-.062-.062.096.096 0 0zm17.159-.449c.09.214.178-.015 0 0zm-6.305 0c.091.214.178-.015 0 0zm6.305-.05c-.195-.447-.873.16 0 0zm-4.565.153c.215-.091-.015-.178 0 0zm-.408-.104c.11.253-.237.898.203.87.157-.156.218-.393.202-.696-.164-.033-.202-.174-.405-.174zm-1.236.147v-.147c-.167.028-.081.148 0 .147zm-1.603-.132c-.061-.062.097.097 0 0zm-.667-.015c-.17.023-.411-.025-.434.147.17-.023.41.026.434-.147zm-8.695 0c-.084.033-.215.004-.218.147.085-.032.215-.003.218-.147zm14.931-.217h-.147c-.02.34.18.234.147 0zm-3.41.218c.17.752.17-.754 0 0zm-.652-.05c.478.141.023-.44 0 0zm4.017-.293c-.09-.214-.178.014 0 0zm-2.698.14c-.061-.062.097.096 0 0zm-5.217 0c-.062-.062.096.096 0 0zm-3.71-.015c.17.753.17-.753 0 0zm-2.826-.31c-.002-.148-.19-.184-.218 0 .122-.014.17.215.218 0zm16.413.31c.006-.086.016-.168.108-.142-.012-.172-.032-.335-.217-.283.017.167-.019.402.109.425zm-5.964-.42c-.062-.062.096.097 0 0zm4.985.257c-.295-.048-.284-.441-.58-.49.054.278-.113.308-.29.327v.326c.234-.477.748.26.87-.163zm-.918-.272c.14-.477-.441-.023 0 0zm-.603-.092c-.001-.148-.19-.185-.218 0 .122-.015.17.214.218 0zm-1.957-.125c-.084.033-.214.004-.217.147.084-.033.214-.004.217-.147zm-.855.015c-.061-.062.097.096 0 0zm-8.478 0c-.062-.062.096.096 0 0zm12.826 0c-.061-.062.097.096 0 0zm-4.867-.232h-.148c.029.166.149.081.148 0zm-1.67.022c-.477-.14-.022.441 0 0zm34.223-.24c-.214.09.015.178 0 0zm-33.57.005c-.259.01-.622-.062-.652.129.408.015.51.245.652-.129zm-7.377.227c-.062-.062.097.097 0 0zm10-.217c.097.097-.061-.062 0 0zm-9.565 0c-.062-.062.096.097 0 0zm40.443-.015c.44-.023-.141-.477 0 0zm-24.574.015c-.06-.062.097.096 0 0zm-4.145-.015c.17.753.17-.753 0 0zm-.434 0c.17.753.17-.753 0 0zm-14.783-.098c-.001-.141-.19-.176-.217 0 .023.17.12.086.217 0zm16.522-.168c-.023-.441-.478.14 0 0zm-3.899.064c.097.096-.061-.062 0 0zm-.45.42c.026-.515-.703-.318-.867-.653-.022.293.212.344.174.653.256-.19.436-.19.693 0zm-1.52-.653c-.015.445.271.328 0 .653h.651c-.278-.156-.327-.541-.651-.653zm-6.942.233c.096.096-.062-.062 0 0zm-1.32-.14c-.122.014-.169-.215-.217 0 .001.148.19.184.217 0zm15 .043c-.458.128-.338-.351-.672-.353.027.205-.038.313-.169.353-.2.601.709.133.841 0zm-1.521-.353c-.085.033-.215.004-.218.147.085-.033.215-.004.218-.147zm-.855.015c.096.096-.062-.062 0 0zm3.913 0c-.062-.062.096.096 0 0zm-5.884-.015c.17.753.17-.753 0 0zm-.435.542c-.597-.115.417-.91-.318-.734-.264.294-.049 1.146.318.734zm-1.305-.542c.17.753.17-.753 0 0zm-.434-.217c-.085.033-.215.004-.218.147.084-.033.215-.004.218-.147zm-9.116.232c-.062-.062.096.096 0 0zm-.652-.218c-.062-.061.096.097 0 0zm38.043-.217c-.062-.062.096.096 0 0zm-25.635-.232c-.176 1.172.45.505 0 0zm-5.017.232c-.062-.062.097.096 0 0zm5.87-.217c-.062-.062.096.096 0 0zm-.435 0c-.062-.062.096.096 0 0zm-.346.077c-.091-.214-.178.015 0 0zm-12.046-.077c-.061-.062.097.096 0 0zm13.696 0c-.062-.062.096.096 0 0zm-.217 0c-.062-.062.096.096 0 0zm-4.145-.233c-.085.033-.215.005-.218.148.084-.033.215-.004.218-.148zm.45.015c-.063-.062.095.097 0 0zm-11.32-.14c-.122.015-.17-.214-.217 0 0 .148.19.185.217 0zM29.783 15c.17.753.17-.753 0 0zm2.168.652c.291-.186.369-.867-.212-.87.407.362-.322.596.212.87zm-4.11-.855c-.062-.061.096.097 0 0zm-.233.184c-.47.156-.43-.266-.83-.189-.257.57.86.497.83.189zm25.435-.416c-.084.033-.214.004-.217.148.085-.034.215-.005.217-.148zm-17.159.232c-.062-.061.097.097 0 0zm-9.362-.014c.17.752.17-.754 0 0zm-2.174-.098c-.001-.142-.19-.176-.218 0 .024.168.121.086.218 0zm-8.54.4c.04-.264-.092-.756-.148-.388-.04.264.09.757.147.388zm-1.678-.394c-.001-.149-.19-.185-.217 0 .122-.015.169.214.217 0zM30 14.348c-.084.033-.214.004-.217.147.084-.033.214-.004.217-.147zm21.971.015c-.061-.062.097.096 0 0zm-22.623.39c-.03-.29-.139-.52-.421-.623.048.276-.213.78.42.623zm-2.16-.39c-.06-.062.097.096 0 0zm-1.102.42c.024-.46-.446-.41-.632-.653-.108.547.265.597.632.653zm-1.94-.42c-.062-.062.096.096 0 0zm-8.276-.233h-.218c.027.186.216.149.218 0zm-6.29.233c-.062-.062.096.096 0 0zm22.16-.015h.217v-.218h-.218v.218zm-13.262-.218c-.084.033-.214.004-.217.148.084-.033.214-.005.217-.148zm-2.39.104c.214-.091-.016-.178 0 0zm-1.212.983h.466c.069-.337-.212-1.076.31-.893-.472-.675-1.111.607-.776.893zm1.863-.638c-.272-.045-.031-.732-.396-.66-.143.473.14 1.229.396.66zm.87-.666c.17.753.17-.753 0 0zm-.544.217c.007-.086.017-.167.109-.141-.012-.173-.032-.336-.217-.283.017.166-.02.401.108.424zm9.457-.434c.17.753.17-.753 0 0zm-.356.078c-.312.432.432-.311 0 0zm-9.694.139c.142-.477-.44-.023 0 0zm-.82-.217h.218v-.218h-.218v.218zm-1.647-.218c-.214.09.015.178 0 0zm16.647.218h.218v-.218h-.218v.218zm-5 0c.171.753.171-.753 0 0zm-11.52-.115c.213-.09-.016-.177 0 0zm37.187-.088c-.062-.062.096.096 0 0zm-19.145-.232c-.084.033-.214.004-.217.147.084-.033.214-.004.217-.147zm-15.652.217h.217v-.217h-.217v.217zm-2.392-.216c-.946-.024-.06.499 0 0zm17.61.258c-.313.057.071-.657-.392-.433-.178.41.234.867.391.433zm19.797-.462c.096.097-.063-.062 0 0zm-20.653 0c-.062-.061.097.097 0 0zm-3.478 0c-.062-.061.097.097 0 0zm-1.754-.015c.171.754.171-.753 0 0zm-1.507.015c-.061-.061.097.097 0 0zm-9.348 0c-.061-.061.097.097 0 0zm-.883.203c.499-.061-.024-.947 0 0zm16.318-.42c.097.096-.061-.062 0 0zm-.45-.015c-.084.033-.214.004-.217.147.085-.033.215-.004.218-.147zm2.827-.092c-.002-.148-.19-.185-.218 0 .122-.015.17.214.218 0zm4.362-.11c-.062-.062.097.096 0 0zm-6.319.172c.577.137 1.255-.222.604-.405.064.372-.563.127-.604.405zm-1.072-.39c-.062-.062.097.096 0 0zm-5.45.42c.005-.248-.08-.375-.217-.435-.005.248.08.376.217.435zm-8.043-.435c.17.753.17-.753 0 0zm16.536-.202c-.061-.062.097.096 0 0zm-8.607.077c-.09-.214-.178.015 0 0zm12.723-.092c.17.753.17-.753 0 0zm-.872.171c.036-.26-.272-.896-.432-.453.345-.06-.08.689.432.453zM35 11.86c-.001-.142-.19-.177-.217 0 .023.168.12.086.217 0zm-3.001.75c.228.028.282-1.088-.14-.832-.098.343-.268.843.14.831zm-16.347-.652c.17.753.17-.754 0 0zm26.74 0h.217v-.218h-.218v.218zm-17.595-.203c-.061-.062.097.096 0 0zm-7.188-.015c.17.753.17-.753 0 0zm-.87 0c-.084.033-.214.004-.217.147.084-.033.214-.004.217-.147zm19.783 0c.17.753.17-.753 0 0zm-5 .435c.054-.1.46-.628 0-.652-.054.1-.461.628 0 .652zm-.638-.638c-.062-.061.097.097 0 0zm-5.014.094c-.172-.019-.329-.234-.435 0 .171.02.328.235.435 0zm7.177-.177c-.067.619.834.074.866-.149h-.693c.032.126-.067.14-.173.149zm.143-.144c-.125-.027-.138.058-.147.148.09-.008.174-.023.147-.148zm-1.016.087c-.122.015-.17-.214-.217 0 0 .149.19.185.217 0zm-5.638.14c-.061-.061.097.097 0 0zm15.653-.217c-.062-.062.096.096 0 0zM30 11.087c-.084.033-.215.004-.217.147.084-.033.214-.004.217-.147zm-12.677.434c.128-.022.073-.75-.141-.271-.036.08.058.285.141.271zm-.801-.434c-.085.033-.215.004-.218.147.085-.033.215-.004.218-.147zm-.653.435c.006-.25-.083-.372-.217-.435-.005.249.084.371.217.435zm18.696-.435c-.085.033-.215.004-.217.147.084-.033.214-.004.217-.147zm-2.826.12c-.001-.142-.19-.177-.217 0 .023.168.12.085.217 0zm-.855-.105c-.062-.062.097.096 0 0zm-4.565 0c-.062-.062.097.096 0 0zm23.696-.218c-.062-.062.096.097 0 0zm-6.957 0c-.062-.062.097.097 0 0zm-9.977.311c-.393-.045-.648.04-.69.326.47.015.347-.271.69 0 .01-.099.026-.192.172-.163.015-.231.03-.461-.172-.488v.325zm-3.718-.31c-.063-.063.096.096 0 0zm-.435 0c-.062-.063.096.096 0 0zm1.956 0c-.061-.062.097.096 0 0zm-.45-.21c-.477-.141-.022.44 0 0zm-3.912.195c.17.753.17-.754 0 0zm-8.913 0c.17.753.17-.754 0 0zM45 10.435c-.084.033-.214.004-.217.147.084-.032.214-.004.217-.147zm-11.087.119c-.001-.141-.19-.176-.217 0 .022.17.12.086.217 0zm-.87.316c.023-.947-.5-.061 0 0zm-16.086-.218h.217v-.217h-.217v.217zm-4.55.015c-.063-.062.095.096 0 0zm36.318-.09c-.156.426.347.251.623.283v-.425h-.311c-.005.138-.19.11-.312.141zm-.155-.142c-.214.09.015.178 0 0zm-16.463.435c.002-.312.365-.2.268-.627-.338-.165-.593.528-.268.627zm-1.89-.63c-.477-.14-.023.44 0 0zm19.58.21c-.062-.062.096.096 0 0zm-13.043 0c-.062-.062.096.096 0 0zm-.884-.14c-.122.014-.17-.215-.218 0 .002.148.19.184.218 0zm-2.827-.092c.09.214.178-.015 0 0zm-4.55.232c-.062-.062.096.096 0 0zm-10.217 0c-.062-.062.096.096 0 0zm-1.537-.233c-.084.033-.214.004-.217.148.084-.033.214-.005.217-.148zM49.13 10.1c-.313.075-.457-.336-.431.118h.431V10.1zm-.652.619c-.342-.05-.157-.669-.499-.718-.467.301.262 1.231.5.718zm-1.932-.428c.241.28.673-.254.8.29-.687.09-1.03-.13-1.28-.435.344.525-1.086.147-.48.434.946.102 1.642.207 2.24.29-.23-.323-.33-.763-.8-.869-.002.24-.444.081-.48.29zM36.11 10c-.142.477.44.023 0 0zm-1.327.217H35V10h-.217v.217zm-.435-.125c-.122.015-.17-.214-.218 0 .001.148.191.185.218 0zm-3.913.234c.195.005.155.2.2.326.497-.024.058-.552 0-.652-.194.005-.155.2-.2.326zM29.783 10c-.085.033-.215.004-.218.147.085-.033.215-.004.218-.147zm-7.392 0c-.084.033-.214.004-.217.147.084-.033.214-.004.217-.147zm29.363.015c-.062-.062.096.096 0 0zM36.24 9.93c.027-.125-.058-.139-.148-.147-.027.125.058.139.148.147zm-5.153-.142c-.259.013-.622-.07-.652.148.258-.013.622.07.652-.148zm4.783.163c-.023-.441-.478.14 0 0zm-4.782-.065c.214-.09-.016-.178 0 0zm-7.147-.103c-.16.872.447.194 0 0zm25.05-.14c-.31.433.433-.31 0 0zm-1.6.022c.025.31.553.103.652.335-.02-.62-.237-.421-.652-.335zM45 9.57v.532c.513-.156.747.456.87-.178-.425.047-.446-.401-.87-.354zm-11.499-.004c-.141.478.44.023 0 0zm-.89 0c-.025.408.22.51.43.652.025-.408-.22-.51-.43-.652zm-8.595.092c-.09-.214-.178.015 0 0zm23.375.126c.023-.947-.5-.061 0 0zm-1.521 0c.172-.024.124-.265.147-.435-.173.023-.124.264-.147.435zm-2.174-.003c.314.025.458-.114.431-.417-.387-.096-.278.287-.431.417zm-.203-.2c-.062-.062.097.096 0 0zm-9.145.103c.164.174.896.153.869-.335-.31.092-.722.086-.87.335zm-.766-.243c-.091-.214-.178.015 0 0zm-3.785.14c-.061-.062.097.096 0 0zm-3.26 0c-.062-.062.096.096 0 0zm20.869-.217c-.062-.062.096.096 0 0zm-1.319-.229v.148c.34.018.234-.18 0-.148zm-1.355-.004c-.451.505.176 1.173 0 0zm-20.167.218c.17.753.17-.753 0 0zm22.624-.203c.096.097-.062-.062 0 0zm-1.216.077c-.09-.214-.178.015 0 0zm-.74-.077c-.063-.062.095.097 0 0zm-.45.089c.214-.09-.015-.178 0 0zm-10.855-.089c-.062-.062.096.097 0 0zm-3.401-.015c-.215.091.015.178 0 0zm-.947.015c-.062-.062.097.097 0 0zm-2.391 0c.096.097-.062-.062 0 0zm-.667.608c-.03-.29-.139-.52-.421-.623.047.276-.213.78.42.623zm-10.855-.608c.096.097-.062-.062 0 0zm28.029-.015h.217v-.217h-.217v.217zm-10.855.015c-.062-.062.096.097 0 0zm-2.405-.129c.214-.09-.016-.178 0 0zm-1.29.13c-.063-.063.095.096 0 0zm-10.435 0c-.063-.063.096.096 0 0zm24.565-.218c.096.096-.062-.062 0 0zm-7.328-.154c-.311.432.432-.311 0 0zm-2.02.154c.096.096-.062-.062 0 0zm-6.087 0c.096.096-.062-.062 0 0zm19.333-.232c.17.753.17-.753 0 0zm-13.68-.218c-.123.944.51.068 0 0zm-1.103 0c-.084.033-.214.004-.217.147.085-.033.214-.003.217-.147zm-1.507.015c-.061-.062.097.097 0 0zm11.305-.217c-.062-.062.096.096 0 0zm-11.74 0c-.061-.062.097.096 0 0zm12.61-.218c.096.097-.063-.062 0 0zm-11.957 0c.096.097-.062-.062 0 0zm10.42-.106c-.002-.149-.19-.186-.218 0 .122-.015.17.214.218 0zm-7.392.091c.171.754.171-.753 0 0zm-.87 0c.172.754.172-.753 0 0zm-.651-.216c.09.214.178-.015 0 0zm-7.377.014c-.062-.062.096.096 0 0zm-10.905.637c.258-.204 1.14-.4.354-.652.09.324-.977.373-.354.652zm20.688-.637c-.062-.062.096.096 0 0zm-2.52-.14c-.09-.214-.179.014 0 0zm-6.828.14c-.062-.062.097.096 0 0zm8.26-.435c-.06-.062.097.096 0 0zm-4.347 0c-.061-.062.096.096 0 0zm3.26-.217c-.06-.062.097.096 0 0zm-6.318.202c.17.753.17-.753 0 0zm-.435-.217c.17.753.17-.753 0 0zm14.797-.637c-.061-.062.097.096 0 0zm-10.652 0c-.061-.062.097.096 0 0zm0-.653c-.061-.062.097.097 0 0zm12.174-.652c-.062-.062.097.097 0 0zm-.435 0c-.061-.062.097.097 0 0zm-8.478 0c-.062-.062.096.097 0 0zm7.174-.652c-.062-.062.096.096 0 0zm-1.102-.015c.17.753.17-.753 0 0zm-25.652-.237c.293.122.639-.359.285-.415-.035.198-.235.233-.285.415zm17.174-.85c-.084.033-.214.004-.217.147.084-.033.214-.004.217-.147zm6.754-.637c-.062-.062.096.096 0 0zm4.348-.218c-.062-.061.096.097 0 0zm-.218-.434c-.061-.062.097.096 0 0zm-8.043 0c-.062-.062.096.096 0 0zm-.87 0c-.062-.062.096.096 0 0zm-2.174 0c-.061-.062.097.096 0 0zm-1.956 0c-.062-.062.096.096 0 0zm-2.392 0c-.061-.062.097.096 0 0zm7.61-.218c-.063-.061.096.097 0 0zm-3.914 0c-.061-.061.097.097 0 0zm-4.58-.034c.293.121.64-.359.285-.415-.034.197-.234.233-.285.415zm5.673-.404c.838-.048-1.359.078 0 0zm-2.243-.229c.14-.477-.442-.023 0 0zm1.135-.217c.171.753.171-.753 0 0zm-.601.304h-.48c-.026.203.036.31.16.348.026-.204.292-.147.48-.174-.013-.275.078-.663-.16-.695v.521zM29.67.87c-.283-.016-.14-.444-.54-.348.043-.249.297-.294.36-.522.257.213.41.664.18.87zM80 66.6c-.403.045-.578-.053-.87-.078.035.268.742.28.87.078M1.522 66.825c-.305-.322-.275.393 0 0M.87 67.252c-.404.045-.579-.053-.87-.078.034.268.742.28.87.078M1.3 69.873c-.002-.107-.187-.133-.213 0 .12-.01.165.155.212 0"/>
        <g>
            <path d="M12.826 63.043h-.076l-.793 6.087h1.739l-.87-6.087zm1.428 9.348l-.3-1.745h-2.26l-.268 1.745H9.783L11.9 60.652h2.054l2.133 11.74h-1.833zM19.252 72.391h-1.563l-2.037-8.26h1.721l1.168 5.755h.032l1.216-5.756h1.515l-2.052 8.261M24.073 65.217c-.662 0-1.03.514-1.03 1.208v.966h1.942c0-.332.015-.679.015-.92 0-.68-.235-1.254-.927-1.254zm2.418 3.49h-3.54v1.279c0 .75.292 1.28 1.124 1.28.738 0 .97-.406.97-1.124 0-.203 0-.484-.016-.624h1.339c.015.187.03.546.03.874 0 1.342-.738 2.217-2.354 2.217-1.8 0-2.74-.843-2.74-2.607v-3.31c0-1.889.908-2.779 2.709-2.779 1.585 0 2.509.89 2.509 2.95 0 .5 0 1.375-.031 1.843zM31.16 72.391v-5.575c0-.9-.343-1.32-.981-1.32-.592 0-1.215.638-1.215 1.585v5.31h-1.681v-7.375c0-.311-.047-.622-.11-.87h1.558c.047.233.109.714.109 1.071h.047c.498-.76 1.136-1.304 2.18-1.304 1.09 0 1.76.761 1.76 2.19v6.288H31.16M37.904 72.421a3.09 3.09 0 0 1-.14-.734h-.031c-.435.516-.978.922-1.941.922-1.118 0-2.096-.656-2.096-2.155V64.13h1.661v5.887c0 .812.233 1.343 1.025 1.343.714 0 1.165-.672 1.165-1.468V64.13h1.677v7.214c0 .312.03.702.124 1.077h-1.444M42.769 65.217c-.662 0-1.03.514-1.03 1.208v.966h1.942c0-.332.015-.679.015-.92 0-.68-.236-1.254-.927-1.254zm2.418 3.49h-3.54v1.279c0 .75.292 1.28 1.123 1.28.74 0 .97-.406.97-1.124 0-.203 0-.484-.015-.624h1.339c.015.187.03.546.03.874 0 1.342-.738 2.217-2.354 2.217-1.801 0-2.74-.843-2.74-2.607v-3.31c0-1.889.908-2.779 2.709-2.779 1.585 0 2.508.89 2.508 2.95 0 .5 0 1.375-.03 1.843zM48.888 72.609c-1.561 0-2.801-.819-2.801-3.136v-5.856c0-2.317 1.27-3.182 2.817-3.182 1.53 0 2.618.71 2.618 2.719 0 .51-.03 1.05-.061 1.344h-1.47c.015-.247.06-.71.06-1.05 0-1.175-.336-1.515-1.04-1.515-.842 0-1.164.665-1.164 1.267v6.597c0 .773.352 1.282 1.164 1.282.689 0 1.057-.37 1.057-1.498 0-.325-.031-.82-.047-1.067h1.44c.03.263.06.773.06 1.345 0 2.023-1.117 2.75-2.633 2.75M56.087 66.744c0-.82-.428-1.31-1.072-1.31-.612 0-1.102.49-1.102 1.326v3.22c0 .803.46 1.324 1.118 1.324.643 0 1.056-.583 1.056-1.325v-3.235zm-1.08 5.865c-1.55 0-2.833-.908-2.833-2.69v-3.3c0-1.767 1.219-2.706 2.834-2.706 1.567 0 2.818.892 2.818 2.706v3.3c0 1.72-1.156 2.69-2.818 2.69zM62.391 66.505c0-.567-.275-1.288-1.087-1.288-.719 0-1.087.598-1.087 1.272v3.479c0 .644.43 1.119 1.103 1.119.612 0 1.071-.521 1.071-1.165v-3.417zm.2 5.778a5.479 5.479 0 0 1-.17-.852h-.031c-.308.418-.908.96-1.863.96-1.279 0-2.049-.867-2.049-2.276v-3.98c0-1.549.955-2.293 2.018-2.293 1.031 0 1.57.465 1.802.806h.015v-3.996h1.648V71.23c0 .325.077.79.17 1.053h-1.54zM67.769 65.217c-.662 0-1.03.514-1.03 1.208v.966h1.942c0-.332.015-.679.015-.92 0-.68-.236-1.254-.927-1.254zm2.418 3.49h-3.54v1.279c0 .75.292 1.28 1.123 1.28.74 0 .97-.406.97-1.124 0-.203 0-.484-.015-.624h1.339c.015.187.03.546.03.874 0 1.342-.738 2.217-2.354 2.217-1.8 0-2.74-.843-2.74-2.607v-3.31c0-1.889.908-2.779 2.709-2.779 1.585 0 2.508.89 2.508 2.95 0 .5 0 1.375-.03 1.843z"/>
        </g>
        <g>
            <path d="M41.08 29.112l-1.043-4.33h-.25l-1.96 7.827h4.13l-.876-3.497zm-6.074 13.661c-.138.521-.345.878-.62 1.07-.274.191-.645.287-1.113.287h-5.691c-.386 0-.64-.068-.763-.205-.124-.137-.103-.48.062-1.028l7.67-24.718c.138-.466.33-.823.578-1.07.248-.246.729-.37 1.444-.37h6.475c.715 0 1.182.124 1.403.37.22.247.412.617.577 1.11l8.125 24.76c.248.768.068 1.151-.536 1.151h-6.31c-.55 0-.935-.13-1.155-.39-.22-.26-.399-.665-.536-1.214l-1.114-4.03H36.16l-1.155 4.277z"/>
            <path d="M24.813 16.553a21.557 21.557 0 0 0-6.335 15.295 21.557 21.557 0 0 0 6.335 15.295 21.557 21.557 0 0 0 15.296 6.335 21.555 21.555 0 0 0 15.295-6.335 21.555 21.555 0 0 0 6.335-15.295 21.555 21.555 0 0 0-6.335-15.295 21.557 21.557 0 0 0-15.295-6.336 21.559 21.559 0 0 0-15.296 6.336zm-9.16 15.186c0-13.448 10.9-24.347 24.347-24.348 13.447 0 24.347 10.9 24.348 24.348-.001 13.447-10.9 24.347-24.348 24.348-13.447-.001-24.347-10.9-24.348-24.348z"/>
        </g>
    </g>
</svg>
